<svg width="1440" height="569" viewBox="0 0 1440 569" fill="none" xmlns="http://www.w3.org/2000/svg">
<path d="M266.5 388.425L266.924 387.519L266.5 388.425ZM178 543.425L178.617 542.638L178 543.425ZM764.5 379.425L764.439 378.427L764.5 379.425ZM1362.5 66.4248L1363.47 66.185L1362.5 66.4248ZM-171.531 497.895C-171.113 497.534 -171.066 496.902 -171.427 496.484C-171.788 496.066 -172.419 496.019 -172.837 496.38L-171.531 497.895ZM-149.593 476.424C-150.014 476.781 -150.066 477.413 -149.709 477.834C-149.351 478.255 -148.72 478.307 -148.299 477.95L-149.593 476.424ZM-140.493 471.375C-140.069 471.021 -140.013 470.39 -140.367 469.966C-140.721 469.542 -141.352 469.486 -141.775 469.84L-140.493 471.375ZM-118.027 450.558C-118.462 450.899 -118.537 451.528 -118.196 451.962C-117.855 452.396 -117.227 452.472 -116.792 452.131L-118.027 450.558ZM-108.728 445.882C-108.289 445.547 -108.205 444.919 -108.54 444.48C-108.876 444.042 -109.503 443.958 -109.942 444.293L-108.728 445.882ZM-85.2079 426.238C-85.6616 426.553 -85.7741 427.176 -85.4592 427.63C-85.1443 428.084 -84.5212 428.196 -84.0675 427.882L-85.2079 426.238ZM-75.6415 422.141C-75.1823 421.835 -75.0588 421.214 -75.3657 420.754C-75.6726 420.295 -76.2936 420.172 -76.7528 420.479L-75.6415 422.141ZM-50.7982 404.197C-51.2748 404.476 -51.4349 405.089 -51.1559 405.565C-50.8768 406.042 -50.2642 406.202 -49.7876 405.923L-50.7982 404.197ZM-40.9442 400.873C-40.4615 400.604 -40.288 399.996 -40.5565 399.513C-40.8251 399.03 -41.434 398.857 -41.9166 399.125L-40.9442 400.873ZM-14.6134 385.176C-15.1142 385.409 -15.3314 386.004 -15.0985 386.505C-14.8656 387.005 -14.2708 387.223 -13.7701 386.99L-14.6134 385.176ZM-4.50543 382.827C-3.9987 382.608 -3.76599 382.019 -3.98566 381.512C-4.20532 381.005 -4.79417 380.773 -5.30089 380.992L-4.50543 382.827ZM23.3196 369.979C22.7961 370.155 22.5143 370.722 22.6902 371.246C22.8661 371.769 23.4331 372.051 23.9566 371.875L23.3196 369.979ZM33.6374 368.784C34.166 368.624 34.4648 368.065 34.3048 367.537C34.1447 367.008 33.5865 366.709 33.0579 366.869L33.6374 368.784ZM62.7988 359.374C62.2574 359.483 61.9069 360.011 62.0159 360.552C62.1249 361.094 62.6522 361.444 63.1936 361.335L62.7988 359.374ZM73.2123 359.49C73.757 359.399 74.1248 358.883 74.0338 358.339C73.9428 357.794 73.4274 357.426 72.8827 357.517L73.2123 359.49ZM103.349 353.997C102.798 354.033 102.38 354.508 102.415 355.059C102.45 355.61 102.926 356.029 103.477 355.993L103.349 353.997ZM113.6 355.517C114.152 355.501 114.586 355.04 114.57 354.488C114.553 353.936 114.092 353.502 113.54 353.518L113.6 355.517ZM144.207 354.17C143.657 354.13 143.178 354.544 143.138 355.095C143.098 355.646 143.512 356.125 144.063 356.165L144.207 354.17ZM154.22 357.07C154.769 357.128 155.262 356.73 155.32 356.181C155.378 355.632 154.98 355.139 154.431 355.081L154.22 357.07ZM184.693 359.791C184.152 359.681 183.624 360.029 183.513 360.57C183.402 361.111 183.75 361.64 184.291 361.751L184.693 359.791ZM194.236 363.952C194.773 364.08 195.313 363.748 195.44 363.21C195.568 362.673 195.236 362.134 194.698 362.006L194.236 363.952ZM224.179 370.411C223.654 370.237 223.088 370.52 222.914 371.044C222.74 371.568 223.024 372.135 223.548 372.309L224.179 370.411ZM233.138 375.644C233.657 375.832 234.23 375.564 234.419 375.045C234.607 374.526 234.339 373.953 233.82 373.764L233.138 375.644ZM262.209 385.349C261.706 385.121 261.113 385.345 260.885 385.848C260.658 386.351 260.881 386.943 261.384 387.171L262.209 385.349ZM270.635 391.511C271.131 391.753 271.73 391.548 271.973 391.052C272.215 390.556 272.01 389.957 271.514 389.714L270.635 391.511ZM297.15 404.151C296.688 403.849 296.068 403.98 295.767 404.442C295.465 404.905 295.595 405.524 296.058 405.826L297.15 404.151ZM304.21 411.448C304.656 411.774 305.281 411.676 305.607 411.23C305.933 410.784 305.835 410.159 305.389 409.833L304.21 411.448ZM327.476 429.466C327.106 429.056 326.474 429.023 326.064 429.393C325.654 429.763 325.622 430.396 325.992 430.806L327.476 429.466ZM332.191 438.316C332.522 438.758 333.149 438.847 333.591 438.516C334.033 438.185 334.122 437.558 333.791 437.116L332.191 438.316ZM347.39 463.407C347.232 462.878 346.674 462.577 346.145 462.735C345.616 462.893 345.315 463.451 345.473 463.98L347.39 463.407ZM347.579 473.406C347.66 473.952 348.169 474.329 348.715 474.248C349.261 474.166 349.638 473.658 349.557 473.111L347.579 473.406ZM347.316 502.656C347.477 502.127 347.179 501.569 346.651 501.408C346.122 501.247 345.564 501.545 345.403 502.073L347.316 502.656ZM341.957 511.111C341.726 511.612 341.946 512.206 342.448 512.437C342.949 512.668 343.543 512.448 343.774 511.947L341.957 511.111ZM326.73 536.219C327.118 535.826 327.114 535.193 326.721 534.805C326.328 534.417 325.695 534.421 325.307 534.814L326.73 536.219ZM318.141 541.378C317.716 541.73 317.657 542.361 318.009 542.786C318.362 543.211 318.992 543.27 319.418 542.917L318.141 541.378ZM294.221 558.524C294.725 558.298 294.95 557.706 294.724 557.202C294.498 556.698 293.906 556.473 293.402 556.699L294.221 558.524ZM284.363 560.297C283.841 560.479 283.566 561.049 283.748 561.571C283.93 562.092 284.501 562.367 285.022 562.185L284.363 560.297ZM256.033 568.304C256.584 568.26 256.994 567.779 256.951 567.228C256.907 566.678 256.425 566.267 255.875 566.31L256.033 568.304ZM246.155 566.656C245.603 566.652 245.151 567.096 245.147 567.648C245.142 568.2 245.586 568.651 246.139 568.656L246.155 566.656ZM216.806 564.468C217.338 564.619 217.891 564.31 218.041 563.779C218.192 563.247 217.883 562.695 217.352 562.544L216.806 564.468ZM208.117 559.469C207.601 559.271 207.023 559.529 206.825 560.045C206.628 560.56 206.885 561.139 207.401 561.336L208.117 559.469ZM181.39 547.224C181.839 547.547 182.463 547.445 182.786 546.997C183.109 546.549 183.007 545.924 182.559 545.602L181.39 547.224ZM174.846 539.314C174.452 538.927 173.819 538.932 173.431 539.326C173.044 539.72 173.05 540.353 173.443 540.74L174.846 539.314ZM157.013 514.17C157.211 514.686 157.79 514.943 158.305 514.745C158.821 514.547 159.078 513.969 158.881 513.453L157.013 514.17ZM155.653 503.696C155.503 503.164 154.951 502.855 154.42 503.005C153.888 503.154 153.578 503.707 153.728 504.238L155.653 503.696ZM148.751 473.428C148.781 473.98 149.253 474.402 149.805 474.371C150.356 474.341 150.778 473.869 150.748 473.318L148.751 473.428ZM150.506 463.034C150.511 462.482 150.066 462.031 149.514 462.026C148.962 462.022 148.511 462.466 148.506 463.018L150.506 463.034ZM151.584 432C151.481 432.543 151.837 433.066 152.379 433.17C152.922 433.273 153.445 432.917 153.549 432.375L151.584 432ZM155.77 422.337C155.906 421.801 155.581 421.258 155.046 421.122C154.51 420.987 153.966 421.312 153.831 421.847L155.77 422.337ZM164.126 392.417C163.898 392.92 164.121 393.513 164.623 393.741C165.126 393.969 165.719 393.747 165.947 393.244L164.126 392.417ZM170.487 384.004C170.746 383.516 170.56 382.911 170.072 382.652C169.584 382.394 168.978 382.58 168.72 383.068L170.487 384.004ZM185.767 356.983C185.423 357.415 185.496 358.044 185.928 358.388C186.361 358.731 186.99 358.659 187.333 358.226L185.767 356.983ZM193.969 350.37C194.338 349.959 194.304 349.327 193.894 348.957C193.483 348.588 192.85 348.622 192.481 349.033L193.969 350.37ZM215.305 327.815C214.869 328.154 214.79 328.782 215.129 329.218C215.468 329.654 216.096 329.733 216.532 329.394L215.305 327.815ZM224.836 323.311C225.291 322.997 225.405 322.375 225.091 321.92C224.778 321.465 224.155 321.351 223.7 321.665L224.836 323.311ZM250.68 306.093C250.181 306.331 249.971 306.928 250.209 307.427C250.447 307.925 251.044 308.136 251.543 307.897L250.68 306.093ZM260.99 303.659C261.499 303.445 261.739 302.859 261.525 302.35C261.311 301.84 260.725 301.601 260.216 301.815L260.99 303.659ZM289.607 291.715C289.075 291.861 288.762 292.412 288.908 292.944C289.054 293.477 289.604 293.79 290.137 293.644L289.607 291.715ZM300.12 291.114C300.658 290.988 300.992 290.451 300.867 289.913C300.742 289.375 300.204 289.041 299.666 289.166L300.12 291.114ZM330.358 283.721C329.81 283.79 329.422 284.29 329.491 284.838C329.56 285.386 330.06 285.775 330.608 285.706L330.358 283.721ZM340.785 284.583C341.335 284.531 341.738 284.043 341.686 283.493C341.634 282.944 341.146 282.54 340.596 282.592L340.785 284.583ZM371.692 280.958C371.14 280.965 370.698 281.419 370.705 281.971C370.712 282.523 371.165 282.965 371.717 282.958L371.692 280.958ZM381.987 283.024C382.539 283.046 383.004 282.617 383.025 282.065C383.047 281.513 382.617 281.048 382.066 281.026L381.987 283.024ZM412.178 285.251C411.639 285.128 411.103 285.465 410.98 286.003C410.857 286.542 411.194 287.078 411.733 287.201L412.178 285.251ZM421.475 289.654C422.007 289.8 422.557 289.487 422.703 288.954C422.849 288.422 422.536 287.871 422.003 287.725L421.475 289.654ZM450.838 297.143C450.32 296.951 449.745 297.216 449.553 297.734C449.361 298.252 449.626 298.827 450.144 299.019L450.838 297.143ZM459.549 302.599C460.064 302.8 460.644 302.545 460.844 302.031C461.045 301.516 460.791 300.937 460.277 300.736L459.549 302.599ZM488.289 312.237C487.781 312.021 487.194 312.258 486.978 312.766C486.762 313.275 486.999 313.862 487.508 314.078L488.289 312.237ZM496.787 318.038C497.294 318.256 497.882 318.02 498.1 317.513C498.317 317.005 498.082 316.417 497.574 316.2L496.787 318.038ZM525.402 328.096C524.893 327.881 524.307 328.119 524.092 328.628C523.877 329.137 524.115 329.723 524.624 329.938L525.402 328.096ZM533.925 333.836C534.435 334.048 535.02 333.806 535.232 333.296C535.444 332.786 535.202 332.201 534.692 331.989L533.925 333.836ZM562.779 343.231C562.264 343.034 561.685 343.292 561.488 343.808C561.291 344.324 561.549 344.902 562.065 345.099L562.779 343.231ZM571.504 348.643C572.023 348.834 572.597 348.569 572.788 348.05C572.979 347.532 572.714 346.957 572.195 346.767L571.504 348.643ZM600.785 356.59C600.259 356.423 599.697 356.714 599.53 357.24C599.363 357.767 599.654 358.329 600.18 358.496L600.785 356.59ZM609.82 361.463C610.349 361.621 610.906 361.32 611.064 360.791C611.221 360.261 610.92 359.704 610.391 359.547L609.82 361.463ZM639.572 367.351C639.034 367.224 638.496 367.557 638.369 368.095C638.242 368.632 638.575 369.171 639.113 369.298L639.572 367.351ZM648.961 371.51C649.501 371.626 650.032 371.281 650.148 370.741C650.263 370.201 649.919 369.67 649.379 369.554L648.961 371.51ZM679.091 374.878C678.545 374.799 678.038 375.178 677.959 375.725C677.88 376.271 678.259 376.778 678.806 376.857L679.091 374.878ZM688.834 378.184C689.382 378.25 689.88 377.859 689.946 377.311C690.012 376.763 689.621 376.265 689.073 376.199L688.834 378.184ZM719.149 378.733C718.597 378.707 718.129 379.132 718.102 379.684C718.076 380.236 718.502 380.704 719.053 380.731L719.149 378.733ZM729.165 381.092C729.717 381.105 730.175 380.668 730.188 380.116C730.201 379.564 729.764 379.106 729.212 379.093L729.165 381.092ZM759.371 378.707C758.82 378.734 758.395 379.203 758.422 379.755C758.449 380.306 758.918 380.731 759.469 380.704L759.371 378.707ZM769.519 380.021C770.069 379.966 770.469 379.476 770.414 378.926C770.359 378.377 769.869 377.976 769.319 378.031L769.519 380.021ZM798.622 372C798.094 372.16 797.795 372.718 797.954 373.246C798.114 373.775 798.672 374.074 799.201 373.914L798.622 372ZM808.835 370.73C809.354 370.544 809.625 369.971 809.439 369.451C809.253 368.931 808.681 368.661 808.161 368.847L808.835 370.73ZM835.701 357.02C835.207 357.266 835.004 357.866 835.25 358.36C835.495 358.855 836.095 359.057 836.59 358.812L835.701 357.02ZM845.657 354.136C846.144 353.876 846.327 353.27 846.067 352.783C845.806 352.296 845.2 352.112 844.713 352.373L845.657 354.136ZM870.697 337.144C870.23 337.439 870.092 338.057 870.388 338.524C870.683 338.99 871.301 339.128 871.768 338.833L870.697 337.144ZM880.134 333.411C880.594 333.107 880.721 332.486 880.416 332.026C880.111 331.565 879.491 331.439 879.03 331.743L880.134 333.411ZM903.73 314.467C903.285 314.794 903.19 315.42 903.517 315.865C903.844 316.31 904.47 316.406 904.915 316.079L903.73 314.467ZM913.066 310.001C913.507 309.668 913.594 309.041 913.261 308.601C912.928 308.16 912.301 308.073 911.86 308.406L913.066 310.001ZM935.596 289.793C935.167 290.141 935.101 290.771 935.448 291.2C935.796 291.629 936.426 291.695 936.855 291.347L935.596 289.793ZM944.596 285.011C945.022 284.659 945.082 284.028 944.73 283.603C944.379 283.177 943.748 283.117 943.323 283.469L944.596 285.011ZM966.341 263.966C965.924 264.328 965.879 264.96 966.241 265.377C966.603 265.794 967.234 265.839 967.651 265.478L966.341 263.966ZM975.232 258.863C975.647 258.498 975.688 257.866 975.323 257.451C974.959 257.036 974.327 256.996 973.912 257.36L975.232 258.863ZM996.417 237.251C996.008 237.622 995.977 238.255 996.348 238.664C996.719 239.073 997.352 239.104 997.761 238.732L996.417 237.251ZM1005.22 231.933C1005.63 231.56 1005.66 230.927 1005.28 230.52C1004.91 230.113 1004.28 230.085 1003.87 230.458L1005.22 231.933ZM1026.01 209.966C1025.61 210.343 1025.59 210.976 1025.96 211.38C1026.34 211.783 1026.97 211.805 1027.38 211.427L1026.01 209.966ZM1034.72 204.543C1035.13 204.165 1035.15 203.532 1034.77 203.129C1034.39 202.727 1033.76 202.707 1033.36 203.085L1034.72 204.543ZM1055.3 182.36C1054.9 182.74 1054.88 183.373 1055.26 183.773C1055.64 184.174 1056.28 184.191 1056.68 183.811L1055.3 182.36ZM1063.98 176.874C1064.38 176.494 1064.4 175.861 1064.02 175.46C1063.64 175.06 1063.01 175.044 1062.6 175.424L1063.98 176.874ZM1084.49 154.617C1084.09 154.997 1084.08 155.63 1084.46 156.031C1084.84 156.431 1085.47 156.448 1085.87 156.067L1084.49 154.617ZM1093.15 149.161C1093.55 148.781 1093.57 148.149 1093.19 147.748C1092.81 147.347 1092.17 147.33 1091.77 147.71L1093.15 149.161ZM1113.74 126.994C1113.34 127.371 1113.32 128.004 1113.7 128.407C1114.07 128.81 1114.71 128.831 1115.11 128.453L1113.74 126.994ZM1122.46 121.588C1122.86 121.211 1122.89 120.579 1122.51 120.174C1122.14 119.77 1121.5 119.747 1121.1 120.124L1122.46 121.588ZM1143.34 99.6711C1142.93 100.042 1142.9 100.674 1143.27 101.084C1143.64 101.493 1144.27 101.524 1144.68 101.153L1143.34 99.6711ZM1152.19 94.3872C1152.6 94.0187 1152.64 93.3865 1152.27 92.9751C1151.9 92.5637 1151.27 92.5289 1150.85 92.8974L1152.19 94.3872ZM1173.58 72.9917C1173.16 73.3504 1173.11 73.9816 1173.47 74.4016C1173.82 74.8216 1174.46 74.8713 1174.88 74.5127L1173.58 72.9917ZM1182.45 68.1128C1182.87 67.7585 1182.93 67.1278 1182.57 66.7042C1182.22 66.2805 1181.59 66.2244 1181.16 66.5787L1182.45 68.1128ZM1204.81 47.5614C1204.37 47.8979 1204.29 48.5257 1204.62 48.9637C1204.96 49.4016 1205.59 49.4838 1206.03 49.1473L1204.81 47.5614ZM1214.08 43.074C1214.52 42.7456 1214.62 42.1194 1214.29 41.6754C1213.96 41.2314 1213.33 41.1376 1212.89 41.466L1214.08 43.074ZM1237.66 24.4474C1237.19 24.7411 1237.05 25.3584 1237.35 25.8261C1237.64 26.2938 1238.26 26.4349 1238.73 26.1412L1237.66 24.4474ZM1247.51 20.841C1247.99 20.5648 1248.15 19.9532 1247.88 19.4749C1247.6 18.9967 1246.99 18.8328 1246.51 19.109L1247.51 20.841ZM1273.69 6.01257C1273.17 6.20484 1272.91 6.78041 1273.1 7.29815C1273.29 7.81589 1273.87 8.07973 1274.39 7.88747L1273.69 6.01257ZM1283.96 4.79783C1284.49 4.65317 1284.8 4.10381 1284.66 3.57081C1284.51 3.03781 1283.97 2.723 1283.43 2.86766L1283.96 4.79783ZM1313.67 0.993203C1313.13 0.885556 1312.6 1.23742 1312.49 1.77911C1312.38 2.3208 1312.74 2.8472 1313.28 2.95484L1313.67 0.993203ZM1322.61 5.88451C1323.11 6.10719 1323.7 5.87799 1323.93 5.37258C1324.15 4.86718 1323.92 4.27695 1323.41 4.05428L1322.61 5.88451ZM1346.15 23.9163C1345.84 23.4603 1345.22 23.343 1344.76 23.6544C1344.3 23.9659 1344.19 24.5881 1344.5 25.0442L1346.15 23.9163ZM1349.56 33.5122C1349.82 34.0012 1350.42 34.1894 1350.91 33.9326C1351.4 33.6758 1351.59 33.0712 1351.33 32.5823L1349.56 33.5122ZM1362.11 60.9542C1361.96 60.4216 1361.41 60.1082 1360.88 60.2543C1360.35 60.4003 1360.03 60.9505 1360.18 61.4831L1362.11 60.9542ZM1362.82 71.7981C1362.96 72.3332 1363.5 72.6561 1364.04 72.5195C1364.57 72.3828 1364.89 71.8382 1364.76 71.3031L1362.82 71.7981ZM1373.22 101.377C1373.06 100.849 1372.5 100.553 1371.97 100.716C1371.44 100.879 1371.15 101.439 1371.31 101.967L1373.22 101.377ZM1374.5 111.993C1374.67 112.517 1375.24 112.803 1375.76 112.631C1376.29 112.459 1376.57 111.894 1376.4 111.37L1374.5 111.993ZM1386.95 140.809C1386.74 140.294 1386.17 140.04 1385.65 140.24C1385.14 140.441 1384.88 141.021 1385.08 141.535L1386.95 140.809ZM1388.96 151.205C1389.17 151.715 1389.76 151.958 1390.27 151.748C1390.78 151.537 1391.02 150.953 1390.81 150.442L1388.96 151.205ZM1403.61 178.989C1403.37 178.492 1402.77 178.285 1402.27 178.527C1401.77 178.768 1401.57 179.367 1401.81 179.863L1403.61 178.989ZM1406.51 189.262C1406.76 189.753 1407.36 189.947 1407.85 189.695C1408.34 189.443 1408.54 188.84 1408.28 188.349L1406.51 189.262ZM1423.49 215.652C1423.21 215.179 1422.59 215.027 1422.12 215.313C1421.65 215.598 1421.5 216.213 1421.78 216.686L1423.49 215.652ZM1427.31 225.593C1427.6 226.059 1428.22 226.196 1428.69 225.899C1429.15 225.602 1429.29 224.984 1428.99 224.518L1427.31 225.593ZM1446.76 250.204C1446.43 249.763 1445.8 249.674 1445.36 250.005C1444.92 250.337 1444.83 250.964 1445.16 251.406L1446.76 250.204ZM1451.57 259.708C1451.92 260.14 1452.55 260.212 1452.98 259.868C1453.41 259.525 1453.48 258.896 1453.14 258.463L1451.57 259.708ZM1473.6 282.069C1473.22 281.668 1472.58 281.651 1472.18 282.031C1471.78 282.411 1471.76 283.043 1472.14 283.445L1473.6 282.069ZM1479.46 290.936C1479.85 291.325 1480.48 291.323 1480.87 290.931C1481.26 290.539 1481.26 289.906 1480.87 289.517L1479.46 290.936ZM1504.08 310.41C1503.65 310.062 1503.02 310.127 1502.67 310.556C1502.32 310.984 1502.39 311.614 1502.82 311.962L1504.08 310.41ZM1511.08 318.427C1511.52 318.759 1512.15 318.671 1512.48 318.23C1512.81 317.789 1512.72 317.162 1512.28 316.83L1511.08 318.427ZM1538.27 334.076C1537.79 333.8 1537.18 333.965 1536.9 334.444C1536.63 334.922 1536.79 335.534 1537.27 335.809L1538.27 334.076ZM1546.49 340.826C1546.98 341.078 1547.59 340.883 1547.84 340.392C1548.09 339.9 1547.9 339.298 1547.4 339.046L1546.49 340.826ZM1576.21 350.673C1575.68 350.524 1575.13 350.834 1574.98 351.365C1574.83 351.897 1575.14 352.449 1575.67 352.599L1576.21 350.673ZM-175.348 501.183C-174.089 500.1 -172.816 499.003 -171.531 497.895L-172.837 496.38C-174.122 497.488 -175.394 498.584 -176.652 499.667L-175.348 501.183ZM-148.299 477.95C-145.739 475.778 -143.137 473.585 -140.493 471.375L-141.775 469.84C-144.424 472.054 -147.029 474.25 -149.593 476.424L-148.299 477.95ZM-116.792 452.131C-114.139 450.048 -111.451 447.964 -108.728 445.882L-109.942 444.293C-112.673 446.381 -115.368 448.47 -118.027 450.558L-116.792 452.131ZM-84.0675 427.882C-81.2905 425.954 -78.4819 424.04 -75.6415 422.141L-76.7528 420.479C-79.6032 422.384 -82.4216 424.305 -85.2079 426.238L-84.0675 427.882ZM-49.7876 405.923C-46.8692 404.214 -43.9214 402.53 -40.9442 400.873L-41.9166 399.125C-44.907 400.789 -47.8675 402.481 -50.7982 404.197L-49.7876 405.923ZM-13.7701 386.99C-10.7095 385.566 -7.62129 384.178 -4.50543 382.827L-5.30089 380.992C-8.43318 382.35 -11.5374 383.746 -14.6134 385.176L-13.7701 386.99ZM23.9566 371.875C27.1573 370.8 30.3842 369.768 33.6374 368.784L33.0579 366.869C29.7851 367.86 26.539 368.898 23.3196 369.979L23.9566 371.875ZM63.1936 361.335C66.5083 360.668 69.8479 360.052 73.2123 359.49L72.8827 357.517C69.4962 358.083 66.1349 358.703 62.7988 359.374L63.1936 361.335ZM103.477 355.993C106.829 355.778 110.203 355.619 113.6 355.517L113.54 353.518C110.12 353.62 106.723 353.781 103.349 353.997L103.477 355.993ZM144.063 356.165C147.428 356.408 150.814 356.709 154.22 357.07L154.431 355.081C151.002 354.717 147.595 354.414 144.207 354.17L144.063 356.165ZM184.291 361.751C187.588 362.427 190.903 363.16 194.236 363.952L194.698 362.006C191.345 361.21 188.01 360.472 184.693 359.791L184.291 361.751ZM223.548 372.309C226.729 373.366 229.925 374.478 233.138 375.644L233.82 373.764C230.591 372.591 227.377 371.474 224.179 370.411L223.548 372.309ZM261.384 387.171C262.945 387.878 264.509 388.598 266.076 389.331L266.924 387.519C265.349 386.783 263.777 386.059 262.209 385.349L261.384 387.171ZM266.076 389.331C267.621 390.053 269.14 390.78 270.635 391.511L271.514 389.714C270.008 388.978 268.478 388.246 266.924 387.519L266.076 389.331ZM296.058 405.826C298.905 407.683 301.621 409.557 304.21 411.448L305.389 409.833C302.771 407.921 300.026 406.026 297.15 404.151L296.058 405.826ZM325.992 430.806C328.242 433.299 330.306 435.804 332.191 438.316L333.791 437.116C331.868 434.554 329.766 432.002 327.476 429.466L325.992 430.806ZM345.473 463.98C346.417 467.139 347.115 470.284 347.579 473.406L349.557 473.111C349.079 469.895 348.361 466.657 347.39 463.407L345.473 463.98ZM345.403 502.073C344.467 505.148 343.313 508.165 341.957 511.111L343.774 511.947C345.166 508.921 346.353 505.82 347.316 502.656L345.403 502.073ZM325.307 534.814C323.051 537.099 320.658 539.29 318.141 541.378L319.418 542.917C321.985 540.788 324.427 538.552 326.73 536.219L325.307 534.814ZM293.402 556.699C290.461 558.019 287.444 559.221 284.363 560.297L285.022 562.185C288.157 561.09 291.227 559.867 294.221 558.524L293.402 556.699ZM255.875 566.31C252.66 566.565 249.417 566.683 246.155 566.656L246.139 568.656C249.459 568.683 252.761 568.564 256.033 568.304L255.875 566.31ZM217.352 562.544C214.262 561.667 211.181 560.644 208.117 559.469L207.401 561.336C210.521 562.533 213.659 563.575 216.806 564.468L217.352 562.544ZM182.559 545.602C181.237 544.649 179.922 543.661 178.617 542.638L177.383 544.212C178.71 545.252 180.046 546.256 181.39 547.224L182.559 545.602ZM178.617 542.638C177.327 541.627 176.069 540.517 174.846 539.314L173.443 540.74C174.717 541.993 176.031 543.152 177.383 544.212L178.617 542.638ZM158.881 513.453C157.688 510.348 156.609 507.089 155.653 503.696L153.728 504.238C154.7 507.688 155.798 511.005 157.013 514.17L158.881 513.453ZM150.748 473.318C150.56 469.945 150.478 466.514 150.506 463.034L148.506 463.018C148.478 466.54 148.561 470.014 148.751 473.428L150.748 473.318ZM153.549 432.375C154.184 429.039 154.924 425.69 155.77 422.337L153.831 421.847C152.975 425.239 152.227 428.626 151.584 432L153.549 432.375ZM165.947 393.244C167.355 390.144 168.868 387.062 170.487 384.004L168.72 383.068C167.081 386.162 165.551 389.281 164.126 392.417L165.947 393.244ZM187.333 358.226C189.443 355.567 191.655 352.946 193.969 350.37L192.481 349.033C190.139 351.64 187.902 354.292 185.767 356.983L187.333 358.226ZM216.532 329.394C219.207 327.315 221.974 325.286 224.836 323.311L223.7 321.665C220.807 323.661 218.01 325.713 215.305 327.815L216.532 329.394ZM251.543 307.897C254.61 306.43 257.759 305.016 260.99 303.659L260.216 301.815C256.955 303.185 253.777 304.612 250.68 306.093L251.543 307.897ZM290.137 293.644C293.397 292.749 296.724 291.905 300.12 291.114L299.666 289.166C296.246 289.963 292.893 290.814 289.607 291.715L290.137 293.644ZM330.608 285.706C333.945 285.286 337.337 284.911 340.785 284.583L340.596 282.592C337.128 282.922 333.716 283.299 330.358 283.721L330.608 285.706ZM371.717 282.958C373.466 282.936 375.227 282.925 377 282.925V280.925C375.218 280.925 373.449 280.936 371.692 280.958L371.717 282.958ZM377 282.925C378.656 282.925 380.318 282.958 381.987 283.024L382.066 281.026C380.371 280.959 378.683 280.925 377 280.925V282.925ZM411.733 287.201C414.952 287.936 418.199 288.756 421.475 289.654L422.003 287.725C418.702 286.82 415.428 285.993 412.178 285.251L411.733 287.201ZM450.144 299.019C453.252 300.169 456.387 301.364 459.549 302.599L460.277 300.736C457.104 299.497 453.958 298.298 450.838 297.143L450.144 299.019ZM487.508 314.078C490.574 315.38 493.667 316.701 496.787 318.038L497.574 316.2C494.453 314.862 491.359 313.54 488.289 312.237L487.508 314.078ZM524.624 329.938C527.698 331.237 530.798 332.537 533.925 333.836L534.692 331.989C531.569 330.692 528.473 329.393 525.402 328.096L524.624 329.938ZM562.065 345.099C565.185 346.293 568.331 347.475 571.504 348.643L572.195 346.767C569.031 345.601 565.892 344.422 562.779 343.231L562.065 345.099ZM600.18 358.496C603.367 359.507 606.58 360.497 609.82 361.463L610.391 359.547C607.163 358.584 603.961 357.597 600.785 356.59L600.18 358.496ZM639.113 369.298C642.369 370.065 645.652 370.804 648.961 371.51L649.379 369.554C646.084 368.851 642.815 368.115 639.572 367.351L639.113 369.298ZM678.806 376.857C682.123 377.336 685.465 377.779 688.834 378.184L689.073 376.199C685.72 375.795 682.393 375.354 679.091 374.878L678.806 376.857ZM719.053 380.731C722.399 380.891 725.77 381.012 729.165 381.092L729.212 379.093C725.833 379.013 722.479 378.893 719.149 378.733L719.053 380.731ZM759.469 380.704C761.161 380.621 762.858 380.527 764.561 380.423L764.439 378.427C762.744 378.531 761.055 378.624 759.371 378.707L759.469 380.704ZM764.561 380.423C766.207 380.322 767.86 380.188 769.519 380.021L769.319 378.031C767.685 378.196 766.058 378.328 764.439 378.427L764.561 380.423ZM799.201 373.914C802.393 372.949 805.605 371.886 808.835 370.73L808.161 368.847C804.96 369.992 801.781 371.044 798.622 372L799.201 373.914ZM836.59 358.812C839.6 357.319 842.622 355.76 845.657 354.136L844.713 352.373C841.696 353.987 838.692 355.537 835.701 357.02L836.59 358.812ZM871.768 338.833C874.549 337.07 877.338 335.262 880.134 333.411L879.03 331.743C876.244 333.587 873.466 335.388 870.697 337.144L871.768 338.833ZM904.915 316.079C907.627 314.086 910.344 312.059 913.066 310.001L911.86 308.406C909.145 310.458 906.435 312.479 903.73 314.467L904.915 316.079ZM936.855 291.347C939.433 289.257 942.014 287.144 944.596 285.011L943.323 283.469C940.745 285.599 938.169 287.707 935.596 289.793L936.855 291.347ZM967.651 265.478C970.178 263.288 972.704 261.082 975.232 258.863L973.912 257.36C971.388 259.577 968.864 261.78 966.341 263.966L967.651 265.478ZM997.761 238.732C1000.25 236.475 1002.74 234.208 1005.22 231.933L1003.87 230.458C1001.39 232.731 998.902 234.996 996.417 237.251L997.761 238.732ZM1027.38 211.427C1029.83 209.136 1032.28 206.841 1034.72 204.543L1033.36 203.085C1030.91 205.382 1028.46 207.676 1026.01 209.966L1027.38 211.427ZM1056.68 183.811C1059.12 181.496 1061.55 179.184 1063.98 176.874L1062.6 175.424C1060.17 177.734 1057.74 180.046 1055.3 182.36L1056.68 183.811ZM1085.87 156.067C1088.3 153.758 1090.73 151.455 1093.15 149.161L1091.77 147.71C1089.35 150.004 1086.93 152.307 1084.49 154.617L1085.87 156.067ZM1115.11 128.453C1117.57 126.15 1120.02 123.861 1122.46 121.588L1121.1 120.124C1118.65 122.399 1116.2 124.689 1113.74 126.994L1115.11 128.453ZM1144.68 101.153C1147.2 98.8743 1149.7 96.6184 1152.19 94.3872L1150.85 92.8974C1148.36 95.1315 1145.85 97.39 1143.34 99.6711L1144.68 101.153ZM1174.88 74.5127C1177.41 72.3451 1179.94 70.2111 1182.45 68.1128L1181.16 66.5787C1178.65 68.6816 1176.12 70.82 1173.58 72.9917L1174.88 74.5127ZM1206.03 49.1473C1208.73 47.0678 1211.42 45.0424 1214.08 43.074L1212.89 41.466C1210.22 43.4421 1207.52 45.4749 1204.81 47.5614L1206.03 49.1473ZM1238.73 26.1412C1241.69 24.279 1244.62 22.5106 1247.51 20.841L1246.51 19.109C1243.6 20.7919 1240.65 22.5731 1237.66 24.4474L1238.73 26.1412ZM1274.39 7.88747C1277.64 6.67761 1280.84 5.64479 1283.96 4.79783L1283.43 2.86766C1280.25 3.73193 1277 4.78379 1273.69 6.01257L1274.39 7.88747ZM1313.28 2.95484C1316.51 3.59649 1319.62 4.56724 1322.61 5.88451L1323.41 4.05428C1320.29 2.67623 1317.03 1.66238 1313.67 0.993203L1313.28 2.95484ZM1344.5 25.0442C1346.26 27.6273 1347.95 30.447 1349.56 33.5122L1351.33 32.5823C1349.69 29.4545 1347.96 26.5682 1346.15 23.9163L1344.5 25.0442ZM1360.18 61.4831C1360.64 63.1702 1361.09 64.8972 1361.53 66.6646L1363.47 66.185C1363.03 64.4017 1362.58 62.6582 1362.11 60.9542L1360.18 61.4831ZM1361.53 66.6646C1361.95 68.385 1362.38 70.0962 1362.82 71.7981L1364.76 71.3031C1364.32 69.6063 1363.89 67.9003 1363.47 66.185L1361.53 66.6646ZM1371.31 101.967C1372.35 105.349 1373.42 108.691 1374.5 111.993L1376.4 111.37C1375.32 108.079 1374.26 104.748 1373.22 101.377L1371.31 101.967ZM1385.08 141.535C1386.36 144.803 1387.65 148.026 1388.96 151.205L1390.81 150.442C1389.5 147.275 1388.22 144.064 1386.95 140.809L1385.08 141.535ZM1401.81 179.863C1403.36 183.047 1404.92 186.18 1406.51 189.262L1408.28 188.349C1406.71 185.28 1405.15 182.16 1403.61 178.989L1401.81 179.863ZM1421.78 216.686C1423.61 219.713 1425.45 222.682 1427.31 225.593L1428.99 224.518C1427.15 221.621 1425.31 218.665 1423.49 215.652L1421.78 216.686ZM1445.16 251.406C1447.29 254.24 1449.43 257.007 1451.57 259.708L1453.14 258.463C1451.01 255.777 1448.88 253.024 1446.76 250.204L1445.16 251.406ZM1472.14 283.445C1474.58 286.02 1477.02 288.517 1479.46 290.936L1480.87 289.517C1478.45 287.112 1476.02 284.63 1473.6 282.069L1472.14 283.445ZM1502.82 311.962C1505.59 314.215 1508.35 316.369 1511.08 318.427L1512.28 316.83C1509.57 314.786 1506.83 312.647 1504.08 310.41L1502.82 311.962ZM1537.27 335.809C1540.41 337.615 1543.49 339.286 1546.49 340.826L1547.4 339.046C1544.43 337.521 1541.38 335.865 1538.27 334.076L1537.27 335.809ZM1575.67 352.599C1577.43 353.094 1579.14 353.527 1580.78 353.9L1581.22 351.95C1579.61 351.585 1577.94 351.16 1576.21 350.673L1575.67 352.599Z" fill="#00DDC2"/>
</svg>
