<svg width="193" height="271" viewBox="0 0 193 271" fill="none" xmlns="http://www.w3.org/2000/svg">
<path d="M0.996571 92.8274V102.663H44.8777V94.3406C44.8777 58.4034 67.1966 40.624 99.7291 40.624C128.101 40.624 148.528 57.2686 148.528 86.0183C148.528 120.064 123.561 133.304 82.7063 145.787C34.2857 160.162 1.75314 182.481 1.75314 231.28V271H189.761V230.902H46.0126V226.741C46.0126 199.126 65.3051 190.803 102.377 179.833C155.715 164.323 192.409 142.005 192.409 87.5314C192.409 34.5714 151.176 0.903989 99.3509 0.903989C43.7429 0.903989 0.996571 34.1931 0.996571 92.8274Z" fill="#00DDC2" fill-opacity="0.1"/>
</svg>
