<svg width="30" height="30" viewBox="0 0 30 30" fill="none" xmlns="http://www.w3.org/2000/svg">
<g opacity="0.7">
<path d="M15 8.83812e-06C6.72949 8.83812e-06 0 6.7295 0 15C0 23.2705 6.72949 30 15 30C23.2705 30 30 23.2705 30 15C30 6.7295 23.2705 8.83812e-06 15 8.83812e-06ZM15 2.25001C22.0547 2.25001 27.75 7.94532 27.75 15C27.75 22.0547 22.0547 27.75 15 27.75C7.94531 27.75 2.25 22.0547 2.25 15C2.25 7.94532 7.94531 2.25001 15 2.25001Z" fill="#475151"/>
<path fill-rule="evenodd" clip-rule="evenodd" d="M11.991 8.3901C12.604 7.83284 13.5527 7.87802 14.1099 8.491L19.1099 13.991C19.63 14.5631 19.63 15.4369 19.1099 16.009L14.1099 21.509C13.5527 22.122 12.604 22.1672 11.991 21.6099C11.378 21.0527 11.3328 20.104 11.8901 19.491L15.9728 15L11.8901 10.509C11.3328 9.89603 11.378 8.94736 11.991 8.3901Z" fill="#475151"/>
</g>
</svg>
