<svg width="30" height="30" viewBox="0 0 30 30" fill="none" xmlns="http://www.w3.org/2000/svg">
<path d="M15 0C6.72949 0 0 6.72949 0 15C0 23.2705 6.72949 30 15 30C23.2705 30 30 23.2705 30 15C30 6.72949 23.2705 0 15 0ZM15 2.25C22.0547 2.25 27.75 7.94531 27.75 15C27.75 22.0547 22.0547 27.75 15 27.75C7.94531 27.75 2.25 22.0547 2.25 15C2.25 7.94531 7.94531 2.25 15 2.25ZM20.6016 10.4883C20.3115 10.4971 20.0332 10.6201 19.8281 10.8281L13.125 17.5342L10.1719 14.5781C9.8877 14.2852 9.46875 14.168 9.07617 14.2705C8.68067 14.373 8.37305 14.6807 8.27051 15.0762C8.16797 15.4688 8.28516 15.8877 8.57812 16.1719L12.3281 19.9219C12.7676 20.3584 13.4824 20.3584 13.9219 19.9219L21.4219 12.4219C21.7529 12.0967 21.8525 11.6016 21.6709 11.1768C21.4922 10.749 21.0674 10.4766 20.6016 10.4883Z" fill="white"/>
</svg>
