<svg width="30" height="31" viewBox="0 0 30 31" fill="none" xmlns="http://www.w3.org/2000/svg">
<path d="M15 0.99762C6.72949 0.99762 0 7.72711 0 15.9976C0 24.2681 6.72949 30.9976 15 30.9976C23.2705 30.9976 30 24.2681 30 15.9976C30 7.72711 23.2705 0.99762 15 0.99762ZM15 3.24762C22.0547 3.24762 27.75 8.94293 27.75 15.9976C27.75 23.0523 22.0547 28.7476 15 28.7476C7.94531 28.7476 2.25 23.0523 2.25 15.9976C2.25 8.94293 7.94531 3.24762 15 3.24762ZM20.6016 11.4859C20.3115 11.4947 20.0332 11.6177 19.8281 11.8257L13.125 18.5318L10.1719 15.5757C9.8877 15.2828 9.46875 15.1656 9.07617 15.2681C8.68067 15.3707 8.37305 15.6783 8.27051 16.0738C8.16797 16.4664 8.28516 16.8853 8.57812 17.1695L12.3281 20.9195C12.7676 21.356 13.4824 21.356 13.9219 20.9195L21.4219 13.4195C21.7529 13.0943 21.8525 12.5992 21.6709 12.1744C21.4922 11.7466 21.0674 11.4742 20.6016 11.4859Z" fill="#475151"/>
</svg>
