<svg width="1440" height="1486" viewBox="0 0 1440 1486" fill="none" xmlns="http://www.w3.org/2000/svg">
<rect x="-1" width="1440" height="1486" fill="#F2F9FC"/>
<path d="M362.5 814.605L361.58 814.998L362.5 814.605ZM354.5 1033.11L354.799 1032.15L354.5 1033.11ZM1047 671.605L1046.26 670.934L1047 671.605ZM-84.2669 1033.86C-83.7157 1033.83 -83.2971 1033.35 -83.3318 1032.8C-83.3666 1032.25 -83.8416 1031.83 -84.3928 1031.87L-84.2669 1033.86ZM-54.2913 1029.43C-54.8411 1029.48 -55.2452 1029.96 -55.1938 1030.51C-55.1423 1031.06 -54.6549 1031.47 -54.105 1031.42L-54.2913 1029.43ZM-44.1722 1030.45C-43.6226 1030.4 -43.2217 1029.91 -43.2767 1029.36C-43.3317 1028.81 -43.8218 1028.41 -44.3714 1028.46L-44.1722 1030.45ZM-14.4303 1025.19C-14.9787 1025.26 -15.3707 1025.75 -15.3058 1026.3C-15.2409 1026.85 -14.7437 1027.24 -14.1952 1027.18L-14.4303 1025.19ZM-4.09856 1025.95C-3.5505 1025.88 -3.16145 1025.38 -3.2296 1024.84C-3.29775 1024.29 -3.79729 1023.9 -4.34536 1023.97L-4.09856 1025.95ZM25.3531 1020.01C24.8063 1020.09 24.4262 1020.59 24.504 1021.14C24.5817 1021.69 25.0881 1022.07 25.6348 1021.99L25.3531 1020.01ZM35.6892 1020.53C36.2355 1020.45 36.6126 1019.94 36.5314 1019.39C36.4503 1018.85 35.9416 1018.47 35.3954 1018.55L35.6892 1020.53ZM65.0117 1013.86C64.4671 1013.96 64.0997 1014.47 64.1913 1015.02C64.2828 1015.56 64.7985 1015.93 65.3432 1015.84L65.0117 1013.86ZM75.2663 1014.14C75.8103 1014.04 76.1741 1013.52 76.0789 1012.98C75.9837 1012.43 75.4655 1012.07 74.9215 1012.17L75.2663 1014.14ZM104.498 1006.66C103.956 1006.77 103.604 1007.3 103.711 1007.84C103.818 1008.38 104.344 1008.73 104.886 1008.63L104.498 1006.66ZM114.704 1006.65C115.245 1006.54 115.593 1006.01 115.482 1005.47C115.371 1004.93 114.842 1004.58 114.301 1004.69L114.704 1006.65ZM143.692 998.261C143.154 998.386 142.82 998.923 142.945 999.461C143.07 999.999 143.607 1000.33 144.145 1000.21L143.692 998.261ZM153.918 997.888C154.455 997.758 154.785 997.218 154.655 996.681C154.524 996.144 153.984 995.814 153.447 995.945L153.918 997.888ZM182.558 988.41C182.026 988.557 181.713 989.108 181.86 989.64C182.008 990.173 182.558 990.485 183.091 990.338L182.558 988.41ZM192.727 987.615C193.257 987.461 193.563 986.907 193.41 986.376C193.256 985.846 192.702 985.54 192.171 985.693L192.727 987.615ZM220.908 976.767C220.384 976.942 220.101 977.508 220.276 978.032C220.451 978.556 221.018 978.839 221.542 978.664L220.908 976.767ZM231.039 975.409C231.56 975.226 231.834 974.655 231.65 974.134C231.467 973.613 230.896 973.339 230.375 973.522L231.039 975.409ZM258.404 962.814C257.894 963.026 257.653 963.612 257.865 964.121C258.077 964.631 258.663 964.873 259.172 964.661L258.404 962.814ZM268.467 960.674C268.972 960.45 269.2 959.86 268.977 959.355C268.753 958.85 268.163 958.621 267.658 958.845L268.467 960.674ZM294.508 945.684C294.023 945.949 293.845 946.556 294.109 947.041C294.374 947.526 294.981 947.704 295.466 947.44L294.508 945.684ZM304.316 942.414C304.791 942.133 304.948 941.519 304.667 941.044C304.386 940.569 303.772 940.411 303.297 940.693L304.316 942.414ZM327.991 923.886C327.558 924.229 327.485 924.858 327.828 925.291C328.171 925.724 328.8 925.797 329.233 925.454L327.991 923.886ZM336.98 918.936C337.391 918.568 337.426 917.935 337.057 917.524C336.689 917.112 336.057 917.078 335.645 917.446L336.98 918.936ZM355.43 895.205C355.12 895.663 355.24 896.285 355.698 896.594C356.155 896.904 356.777 896.784 357.086 896.326L355.43 895.205ZM362.291 887.682C362.549 887.194 362.363 886.588 361.875 886.33C361.387 886.072 360.782 886.258 360.523 886.746L362.291 887.682ZM369.189 858.597C369.134 859.146 369.534 859.637 370.084 859.692C370.633 859.747 371.124 859.347 371.179 858.797L369.189 858.597ZM371.52 848.604C371.503 848.052 371.041 847.619 370.489 847.637C369.937 847.655 369.504 848.117 369.521 848.669L371.52 848.604ZM363.504 819.797C363.698 820.314 364.274 820.576 364.792 820.382C365.309 820.188 365.571 819.612 365.377 819.095L363.504 819.797ZM361.324 809.641C361.08 809.146 360.481 808.942 359.985 809.185C359.489 809.429 359.285 810.029 359.529 810.524L361.324 809.641ZM342.565 787.935C342.981 788.298 343.613 788.255 343.976 787.839C344.339 787.423 344.296 786.791 343.879 786.428L342.565 787.935ZM336.059 780.605C335.592 780.31 334.975 780.45 334.68 780.918C334.386 781.385 334.526 782.002 334.993 782.297L336.059 780.605ZM308.354 773.031C308.902 773.098 309.401 772.707 309.468 772.159C309.535 771.611 309.144 771.112 308.596 771.046L308.354 773.031ZM298.88 770.475C298.328 770.476 297.881 770.925 297.882 771.477C297.883 772.029 298.331 772.476 298.884 772.475L298.88 770.475ZM270.756 776.987C271.284 776.824 271.579 776.263 271.415 775.736C271.252 775.208 270.692 774.913 270.164 775.077L270.756 776.987ZM260.991 778.347C260.479 778.554 260.231 779.137 260.438 779.649C260.644 780.161 261.227 780.409 261.739 780.202L260.991 778.347ZM236.588 793.822C237.043 793.508 237.156 792.885 236.842 792.43C236.528 791.976 235.905 791.862 235.451 792.176L236.588 793.822ZM227.663 797.973C227.232 798.319 227.162 798.948 227.507 799.379C227.853 799.81 228.482 799.88 228.913 799.535L227.663 797.973ZM208.591 819.696C208.939 819.266 208.872 818.637 208.443 818.289C208.013 817.942 207.384 818.008 207.036 818.438L208.591 819.696ZM201.224 826.21C200.911 826.665 201.025 827.288 201.48 827.601C201.935 827.914 202.558 827.8 202.871 827.345L201.224 826.21ZM189.734 852.7C189.921 852.181 189.651 851.608 189.131 851.421C188.611 851.234 188.039 851.504 187.852 852.024L189.734 852.7ZM185.003 861.322C184.868 861.857 185.191 862.401 185.727 862.537C186.262 862.673 186.806 862.349 186.942 861.814L185.003 861.322ZM184.279 890.163C184.243 889.612 183.767 889.194 183.216 889.231C182.665 889.267 182.247 889.743 182.283 890.294L184.279 890.163ZM183.432 899.909C183.526 900.453 184.044 900.818 184.588 900.723C185.132 900.629 185.497 900.111 185.402 899.567L183.432 899.909ZM194.463 926.528C194.213 926.035 193.612 925.837 193.119 926.087C192.626 926.336 192.428 926.937 192.678 927.43L194.463 926.528ZM197.422 935.887C197.712 936.356 198.328 936.502 198.798 936.212C199.268 935.922 199.414 935.305 199.123 934.835L197.422 935.887ZM216.852 957.438C216.469 957.04 215.836 957.028 215.438 957.411C215.04 957.794 215.028 958.427 215.411 958.825L216.852 957.438ZM222.179 965.474C222.583 965.85 223.216 965.827 223.592 965.422C223.968 965.018 223.945 964.385 223.541 964.009L222.179 965.474ZM246.001 982.008C245.548 981.692 244.925 981.803 244.609 982.256C244.293 982.709 244.404 983.332 244.856 983.648L246.001 982.008ZM252.877 989.02C253.342 989.319 253.96 989.185 254.259 988.72C254.558 988.255 254.423 987.637 253.959 987.338L252.877 989.02ZM278.809 1001.64C278.318 1001.39 277.715 1001.58 277.461 1002.07C277.208 1002.56 277.4 1003.16 277.89 1003.42L278.809 1001.64ZM286.538 1007.74C287.035 1007.98 287.633 1007.77 287.873 1007.28C288.114 1006.78 287.906 1006.18 287.409 1005.94L286.538 1007.74ZM313.737 1017.56C313.225 1017.35 312.642 1017.6 312.436 1018.11C312.23 1018.62 312.478 1019.21 312.99 1019.41L313.737 1017.56ZM322.286 1023.05C322.803 1023.24 323.38 1022.98 323.576 1022.47C323.772 1021.95 323.512 1021.37 322.996 1021.18L322.286 1023.05ZM350.021 1030.63C349.496 1030.46 348.932 1030.75 348.763 1031.28C348.593 1031.8 348.882 1032.36 349.407 1032.53L350.021 1030.63ZM359.135 1035.59C359.663 1035.75 360.222 1035.45 360.384 1034.93C360.546 1034.4 360.249 1033.84 359.721 1033.68L359.135 1035.59ZM388.71 1041.88C388.175 1041.74 387.629 1042.07 387.491 1042.6C387.352 1043.13 387.673 1043.68 388.208 1043.82L388.71 1041.88ZM398.165 1046.32C398.702 1046.45 399.242 1046.12 399.373 1045.58C399.503 1045.05 399.173 1044.51 398.637 1044.38L398.165 1046.32ZM428.13 1050.76C427.588 1050.66 427.064 1051.02 426.961 1051.56C426.858 1052.1 427.214 1052.62 427.757 1052.73L428.13 1050.76ZM437.726 1054.53C438.271 1054.62 438.787 1054.26 438.881 1053.71C438.974 1053.17 438.608 1052.65 438.064 1052.56L437.726 1054.53ZM467.947 1056.8C467.398 1056.74 466.903 1057.13 466.842 1057.68C466.78 1058.23 467.175 1058.73 467.724 1058.79L467.947 1056.8ZM477.651 1059.8C478.201 1059.85 478.688 1059.44 478.738 1058.89C478.788 1058.34 478.383 1057.86 477.833 1057.81L477.651 1059.8ZM507.961 1059.57C507.408 1059.56 506.95 1060 506.936 1060.55C506.922 1061.1 507.358 1061.56 507.91 1061.57L507.961 1059.57ZM518.131 1061.71C518.683 1061.71 519.131 1061.26 519.132 1060.71C519.133 1060.16 518.686 1059.71 518.134 1059.71L518.131 1061.71ZM548.285 1058.65C547.734 1058.69 547.32 1059.17 547.36 1059.72C547.399 1060.27 547.878 1060.69 548.429 1060.65L548.285 1058.65ZM558.435 1059.8C558.985 1059.74 559.387 1059.25 559.333 1058.7C559.279 1058.15 558.79 1057.75 558.24 1057.81L558.435 1059.8ZM588.127 1053.68C587.583 1053.78 587.221 1054.3 587.319 1054.84C587.416 1055.39 587.936 1055.75 588.479 1055.65L588.127 1053.68ZM598.453 1053.73C598.994 1053.61 599.342 1053.08 599.23 1052.54C599.118 1052 598.589 1051.65 598.048 1051.77L598.453 1053.73ZM627.293 1044.45C626.764 1044.61 626.46 1045.16 626.616 1045.69C626.772 1046.22 627.328 1046.53 627.858 1046.37L627.293 1044.45ZM637.504 1043.39C638.029 1043.22 638.317 1042.66 638.147 1042.13C637.977 1041.61 637.413 1041.32 636.887 1041.49L637.504 1043.39ZM665.199 1031.04C664.689 1031.25 664.447 1031.84 664.659 1032.35C664.871 1032.86 665.456 1033.1 665.966 1032.89L665.199 1031.04ZM675.249 1028.89C675.753 1028.67 675.98 1028.08 675.755 1027.57C675.53 1027.07 674.939 1026.84 674.435 1027.07L675.249 1028.89ZM701.512 1013.75C701.026 1014.02 700.844 1014.62 701.106 1015.11C701.367 1015.59 701.974 1015.78 702.46 1015.51L701.512 1013.75ZM711.303 1010.62C711.783 1010.35 711.951 1009.74 711.678 1009.26C711.405 1008.78 710.794 1008.61 710.314 1008.88L711.303 1010.62ZM736.039 993.084C735.578 993.389 735.451 994.009 735.755 994.47C736.059 994.931 736.679 995.058 737.14 994.754L736.039 993.084ZM745.518 989.105C745.972 988.791 746.087 988.169 745.773 987.714C745.46 987.259 744.837 987.144 744.383 987.458L745.518 989.105ZM768.741 969.622C768.304 969.96 768.224 970.588 768.563 971.025C768.901 971.461 769.529 971.541 769.966 971.202L768.741 969.622ZM777.912 964.934C778.342 964.588 778.411 963.959 778.065 963.528C777.72 963.097 777.09 963.028 776.66 963.374L777.912 964.934ZM799.768 943.912C799.353 944.277 799.313 944.909 799.679 945.323C800.044 945.738 800.676 945.778 801.09 945.412L799.768 943.912ZM808.607 938.696C809.016 938.326 809.047 937.693 808.677 937.284C808.306 936.875 807.674 936.843 807.264 937.214L808.607 938.696ZM829.286 916.503C828.891 916.889 828.882 917.522 829.268 917.918C829.653 918.313 830.286 918.321 830.682 917.936L829.286 916.503ZM837.884 910.843C838.276 910.453 838.277 909.82 837.888 909.428C837.498 909.037 836.865 909.035 836.474 909.425L837.884 910.843ZM857.583 887.802C857.202 888.203 857.218 888.836 857.618 889.216C858.019 889.597 858.652 889.58 859.032 889.18L857.583 887.802ZM865.959 881.833C866.336 881.43 866.315 880.797 865.912 880.42C865.509 880.042 864.876 880.064 864.499 880.467L865.959 881.833ZM884.935 858.155C884.566 858.566 884.599 859.198 885.01 859.567C885.421 859.937 886.053 859.903 886.422 859.492L884.935 858.155ZM893.138 851.975C893.505 851.562 893.468 850.93 893.055 850.563C892.642 850.197 892.01 850.234 891.643 850.647L893.138 851.975ZM911.572 827.898C911.211 828.316 911.256 828.947 911.674 829.309C912.092 829.67 912.723 829.624 913.085 829.207L911.572 827.898ZM919.681 821.556C920.041 821.137 919.993 820.506 919.574 820.146C919.155 819.786 918.524 819.834 918.164 820.253L919.681 821.556ZM937.8 797.22C937.443 797.642 937.495 798.273 937.917 798.63C938.338 798.987 938.969 798.934 939.326 798.513L937.8 797.22ZM945.831 790.823C946.188 790.401 946.135 789.77 945.713 789.413C945.291 789.057 944.66 789.11 944.303 789.532L945.831 790.823ZM963.806 766.397C963.45 766.819 963.504 767.45 963.927 767.806C964.349 768.161 964.98 768.107 965.336 767.685L963.806 766.397ZM971.841 759.966C972.197 759.543 972.143 758.912 971.721 758.556C971.299 758.201 970.668 758.254 970.312 758.676L971.841 759.966ZM989.863 735.563C989.505 735.984 989.556 736.615 989.977 736.973C990.398 737.331 991.029 737.279 991.387 736.858L989.863 735.563ZM997.92 729.186C998.278 728.766 998.229 728.135 997.808 727.776C997.388 727.418 996.757 727.468 996.399 727.888L997.92 729.186ZM1016.14 704.945C1015.78 705.362 1015.83 705.993 1016.24 706.355C1016.66 706.718 1017.29 706.673 1017.65 706.256L1016.14 704.945ZM1024.28 698.655C1024.65 698.24 1024.6 697.608 1024.19 697.244C1023.77 696.88 1023.14 696.922 1022.78 697.338L1024.28 698.655ZM1042.87 674.687C1042.5 675.098 1042.54 675.73 1042.95 676.1C1043.36 676.469 1043.99 676.436 1044.36 676.025L1042.87 674.687ZM1051.16 668.527C1051.53 668.121 1051.51 667.488 1051.1 667.114C1050.69 666.74 1050.06 666.767 1049.69 667.174L1051.16 668.527ZM1070.69 645.392C1070.3 645.78 1070.29 646.413 1070.68 646.806C1071.07 647.199 1071.7 647.203 1072.1 646.815L1070.69 645.392ZM1079.27 639.839C1079.67 639.457 1079.69 638.824 1079.3 638.425C1078.92 638.026 1078.29 638.011 1077.89 638.393L1079.27 639.839ZM1100.3 618.013C1099.88 618.374 1099.83 619.006 1100.19 619.424C1100.55 619.842 1101.19 619.887 1101.6 619.526L1100.3 618.013ZM1109.22 613.053C1109.64 612.699 1109.7 612.069 1109.35 611.645C1108.99 611.221 1108.36 611.164 1107.94 611.518L1109.22 613.053ZM1131.69 592.708C1131.25 593.04 1131.16 593.667 1131.49 594.109C1131.82 594.55 1132.45 594.64 1132.89 594.308L1131.69 592.708ZM1140.95 588.374C1141.4 588.051 1141.5 587.426 1141.17 586.978C1140.85 586.53 1140.22 586.43 1139.78 586.753L1140.95 588.374ZM1164.79 569.678C1164.32 569.977 1164.19 570.596 1164.49 571.06C1164.79 571.524 1165.4 571.658 1165.87 571.359L1164.79 569.678ZM1174.36 566.004C1174.82 565.714 1174.97 565.098 1174.68 564.628C1174.39 564.158 1173.77 564.013 1173.3 564.303L1174.36 566.004ZM1199.45 549.115C1198.97 549.379 1198.79 549.986 1199.05 550.471C1199.31 550.956 1199.92 551.135 1200.41 550.871L1199.45 549.115ZM1209.3 546.137C1209.79 545.882 1209.98 545.278 1209.73 544.788C1209.47 544.298 1208.87 544.108 1208.38 544.363L1209.3 546.137ZM1235.58 531.166C1235.08 531.393 1234.85 531.985 1235.08 532.489C1235.31 532.992 1235.9 533.216 1236.4 532.99L1235.58 531.166ZM1245.6 528.951C1246.11 528.734 1246.34 528.146 1246.12 527.638C1245.91 527.13 1245.32 526.895 1244.81 527.112L1245.6 528.951ZM1272.97 516.012C1272.45 516.199 1272.18 516.773 1272.37 517.292C1272.56 517.812 1273.13 518.081 1273.65 517.893L1272.97 516.012ZM1283.13 514.572C1283.66 514.394 1283.94 513.827 1283.76 513.304C1283.58 512.781 1283.01 512.5 1282.49 512.678L1283.13 514.572ZM1311.41 503.806C1310.88 503.953 1310.57 504.503 1310.72 505.035C1310.86 505.568 1311.41 505.881 1311.94 505.735L1311.41 503.806ZM1321.62 503.184C1322.15 503.049 1322.48 502.505 1322.34 501.969C1322.2 501.434 1321.66 501.11 1321.13 501.245L1321.62 503.184ZM1350.7 494.72C1350.16 494.822 1349.8 495.345 1349.9 495.888C1350 496.43 1350.53 496.788 1351.07 496.685L1350.7 494.72ZM1360.95 494.934C1361.49 494.843 1361.86 494.328 1361.77 493.783C1361.68 493.238 1361.16 492.87 1360.62 492.961L1360.95 494.934ZM1390.65 488.976C1390.1 489.03 1389.7 489.52 1389.75 490.069C1389.81 490.619 1390.3 491.021 1390.85 490.967L1390.65 488.976ZM1400.83 490.102C1401.38 490.061 1401.79 489.581 1401.75 489.03C1401.71 488.48 1401.23 488.067 1400.68 488.108L1400.83 490.102ZM1430.93 487.002C1430.38 487 1429.93 487.446 1429.93 487.999C1429.92 488.551 1430.37 489 1430.92 489.002L1430.93 487.002ZM1440.96 489.187C1441.51 489.206 1441.97 488.773 1441.99 488.221C1442.01 487.669 1441.58 487.207 1441.02 487.188L1440.96 489.187ZM1471.25 489.819C1470.7 489.737 1470.19 490.113 1470.11 490.659C1470.03 491.205 1470.41 491.715 1470.95 491.796L1471.25 489.819ZM-89 1034.11C-88.4915 1034.11 -86.8603 1034.03 -84.2669 1033.86L-84.3928 1031.87C-87.0102 1032.03 -88.569 1032.11 -89 1032.11V1034.11ZM-54.105 1031.42C-50.969 1031.12 -47.6537 1030.8 -44.1722 1030.45L-44.3714 1028.46C-47.8485 1028.81 -51.1595 1029.13 -54.2913 1029.43L-54.105 1031.42ZM-14.1952 1027.18C-10.9069 1026.79 -7.53928 1026.38 -4.09856 1025.95L-4.34536 1023.97C-7.78208 1024.39 -11.1458 1024.8 -14.4303 1025.19L-14.1952 1027.18ZM25.6348 1021.99C28.9447 1021.52 32.2975 1021.03 35.6892 1020.53L35.3954 1018.55C32.0077 1019.05 28.659 1019.54 25.3531 1020.01L25.6348 1021.99ZM65.3432 1015.84C68.6287 1015.28 71.9375 1014.72 75.2663 1014.14L74.9215 1012.17C71.5972 1012.75 68.2929 1013.31 65.0117 1013.86L65.3432 1015.84ZM104.886 1008.63C108.149 1007.98 111.423 1007.32 114.704 1006.65L114.301 1004.69C111.025 1005.36 107.757 1006.02 104.498 1006.66L104.886 1008.63ZM144.145 1000.21C147.404 999.451 150.663 998.678 153.918 997.888L153.447 995.945C150.198 996.732 146.946 997.504 143.692 998.261L144.145 1000.21ZM183.091 990.338C186.315 989.447 189.528 988.539 192.727 987.615L192.171 985.693C188.98 986.616 185.775 987.521 182.558 988.41L183.091 990.338ZM221.542 978.664C224.732 977.598 227.899 976.513 231.039 975.409L230.375 973.522C227.245 974.623 224.089 975.705 220.908 976.767L221.542 978.664ZM259.172 964.661C262.312 963.355 265.411 962.026 268.467 960.674L267.658 958.845C264.616 960.191 261.53 961.514 258.404 962.814L259.172 964.661ZM295.466 947.44C298.482 945.795 301.434 944.119 304.316 942.414L303.297 940.693C300.436 942.386 297.505 944.049 294.508 945.684L295.466 947.44ZM329.233 925.454C331.923 923.322 334.507 921.15 336.98 918.936L335.645 917.446C333.205 919.631 330.651 921.778 327.991 923.886L329.233 925.454ZM357.086 896.326C358.997 893.502 360.735 890.621 362.291 887.682L360.523 886.746C359.003 889.618 357.302 892.438 355.43 895.205L357.086 896.326ZM371.179 858.797C371.514 855.459 371.631 852.062 371.52 848.604L369.521 848.669C369.63 852.039 369.516 855.348 369.189 858.597L371.179 858.797ZM365.377 819.095C364.771 817.479 364.119 815.851 363.42 814.213L361.58 814.998C362.268 816.609 362.909 818.209 363.504 819.797L365.377 819.095ZM363.42 814.213C362.75 812.643 362.051 811.119 361.324 809.641L359.529 810.524C360.24 811.969 360.924 813.46 361.58 814.998L363.42 814.213ZM343.879 786.428C341.384 784.252 338.772 782.314 336.059 780.605L334.993 782.297C337.619 783.951 340.148 785.828 342.565 787.935L343.879 786.428ZM308.596 771.046C305.401 770.656 302.157 770.469 298.88 770.475L298.884 772.475C302.082 772.469 305.244 772.652 308.354 773.031L308.596 771.046ZM270.164 775.077C267.091 776.03 264.029 777.122 260.991 778.347L261.739 780.202C264.727 778.997 267.737 777.923 270.756 776.987L270.164 775.077ZM235.451 792.176C232.797 794.011 230.198 795.945 227.663 797.973L228.913 799.535C231.411 797.536 233.973 795.629 236.588 793.822L235.451 792.176ZM207.036 818.438C204.999 820.956 203.058 823.549 201.224 826.21L202.871 827.345C204.675 824.727 206.585 822.175 208.591 819.696L207.036 818.438ZM187.852 852.024C186.755 855.074 185.802 858.176 185.003 861.322L186.942 861.814C187.724 858.732 188.658 855.692 189.734 852.7L187.852 852.024ZM182.283 890.294C182.493 893.479 182.872 896.686 183.432 899.909L185.402 899.567C184.855 896.414 184.484 893.278 184.279 890.163L182.283 890.294ZM192.678 927.43C194.103 930.251 195.682 933.071 197.422 935.887L199.123 934.835C197.413 932.067 195.862 929.297 194.463 926.528L192.678 927.43ZM215.411 958.825C217.551 961.051 219.807 963.268 222.179 965.474L223.541 964.009C221.195 961.828 218.966 959.637 216.852 957.438L215.411 958.825ZM244.856 983.648C247.439 985.451 250.112 987.242 252.877 989.02L253.959 987.338C251.214 985.573 248.562 983.796 246.001 982.008L244.856 983.648ZM277.89 1003.42C280.701 1004.87 283.583 1006.31 286.538 1007.74L287.409 1005.94C284.47 1004.52 281.604 1003.09 278.809 1001.64L277.89 1003.42ZM312.99 1019.41C316.027 1020.63 319.125 1021.85 322.286 1023.05L322.996 1021.18C319.847 1019.98 316.761 1018.77 313.737 1017.56L312.99 1019.41ZM349.407 1032.53C350.992 1033.05 352.59 1033.55 354.201 1034.06L354.799 1032.15C353.193 1031.65 351.601 1031.14 350.021 1030.63L349.407 1032.53ZM354.201 1034.06C355.85 1034.58 357.495 1035.09 359.135 1035.59L359.721 1033.68C358.085 1033.18 356.445 1032.67 354.799 1032.15L354.201 1034.06ZM388.208 1043.82C391.547 1044.69 394.866 1045.52 398.165 1046.32L398.637 1044.38C395.348 1043.58 392.039 1042.75 388.71 1041.88L388.208 1043.82ZM427.757 1052.73C431.101 1053.36 434.424 1053.96 437.726 1054.53L438.064 1052.56C434.773 1051.99 431.462 1051.4 428.13 1050.76L427.757 1052.73ZM467.724 1058.79C471.055 1059.16 474.363 1059.5 477.651 1059.8L477.833 1057.81C474.559 1057.51 471.264 1057.17 467.947 1056.8L467.724 1058.79ZM507.91 1061.57C511.341 1061.66 514.748 1061.7 518.131 1061.71L518.134 1059.71C514.766 1059.7 511.375 1059.66 507.961 1059.57L507.91 1061.57ZM548.429 1060.65C551.788 1060.4 555.123 1060.12 558.435 1059.8L558.24 1057.81C554.945 1058.13 551.627 1058.41 548.285 1058.65L548.429 1060.65ZM588.479 1055.65C591.828 1055.05 595.153 1054.41 598.453 1053.73L598.048 1051.77C594.765 1052.45 591.458 1053.09 588.127 1053.68L588.479 1055.65ZM627.858 1046.37C631.096 1045.42 634.311 1044.42 637.504 1043.39L636.887 1041.49C633.712 1042.52 630.514 1043.5 627.293 1044.45L627.858 1046.37ZM665.966 1032.89C669.081 1031.59 672.175 1030.26 675.249 1028.89L674.435 1027.07C671.377 1028.43 668.299 1029.75 665.199 1031.04L665.966 1032.89ZM702.46 1015.51C705.426 1013.92 708.373 1012.29 711.303 1010.62L710.314 1008.88C707.398 1010.54 704.464 1012.17 701.512 1013.75L702.46 1015.51ZM737.14 994.754C739.948 992.902 742.74 991.019 745.518 989.105L744.383 987.458C741.617 989.364 738.836 991.24 736.039 993.084L737.14 994.754ZM769.966 971.202C772.627 969.14 775.275 967.05 777.912 964.934L776.66 963.374C774.032 965.483 771.393 967.566 768.741 969.622L769.966 971.202ZM801.09 945.412C803.605 943.196 806.111 940.957 808.607 938.696L807.264 937.214C804.775 939.469 802.276 941.702 799.768 943.912L801.09 945.412ZM830.682 917.936C833.09 915.59 835.49 913.225 837.884 910.843L836.474 909.425C834.084 911.803 831.689 914.163 829.286 916.503L830.682 917.936ZM859.032 889.18C861.346 886.746 863.655 884.297 865.959 881.833L864.499 880.467C862.198 882.927 859.892 885.372 857.583 887.802L859.032 889.18ZM886.422 859.492C888.663 856.998 890.902 854.492 893.138 851.975L891.643 850.647C889.409 853.161 887.173 855.664 884.935 858.155L886.422 859.492ZM913.085 829.207C915.284 826.665 917.482 824.114 919.681 821.556L918.164 820.253C915.967 822.809 913.77 825.358 911.572 827.898L913.085 829.207ZM939.326 798.513C941.493 795.955 943.661 793.391 945.831 790.823L944.303 789.532C942.134 792.1 939.966 794.663 937.8 797.22L939.326 798.513ZM965.336 767.685C967.501 765.115 969.669 762.542 971.841 759.966L970.312 758.676C968.14 761.253 965.971 763.826 963.806 766.397L965.336 767.685ZM991.387 736.858C993.559 734.301 995.737 731.744 997.92 729.186L996.399 727.888C994.215 730.447 992.036 733.005 989.863 735.563L991.387 736.858ZM1017.65 706.256C1019.86 703.721 1022.07 701.187 1024.28 698.655L1022.78 697.338C1020.56 699.872 1018.35 702.407 1016.14 704.945L1017.65 706.256ZM1044.36 676.025C1045.48 674.775 1046.61 673.525 1047.74 672.276L1046.26 670.934C1045.13 672.184 1044 673.435 1042.87 674.687L1044.36 676.025ZM1047.74 672.276C1048.88 671.018 1050.02 669.769 1051.16 668.527L1049.69 667.174C1048.54 668.419 1047.4 669.673 1046.26 670.934L1047.74 672.276ZM1072.1 646.815C1074.48 644.456 1076.88 642.131 1079.27 639.839L1077.89 638.393C1075.49 640.693 1073.09 643.026 1070.69 645.392L1072.1 646.815ZM1101.6 619.526C1104.14 617.334 1106.68 615.177 1109.22 613.053L1107.94 611.518C1105.39 613.649 1102.84 615.814 1100.3 618.013L1101.6 619.526ZM1132.89 594.308C1135.57 592.295 1138.26 590.317 1140.95 588.374L1139.78 586.753C1137.08 588.703 1134.38 590.688 1131.69 592.708L1132.89 594.308ZM1165.87 571.359C1168.7 569.538 1171.53 567.753 1174.36 566.004L1173.3 564.303C1170.47 566.058 1167.63 567.849 1164.79 569.678L1165.87 571.359ZM1200.41 550.871C1203.38 549.255 1206.34 547.677 1209.3 546.137L1208.38 544.363C1205.41 545.909 1202.43 547.492 1199.45 549.115L1200.41 550.871ZM1236.4 532.99C1239.48 531.605 1242.54 530.259 1245.6 528.951L1244.81 527.112C1241.74 528.425 1238.67 529.776 1235.58 531.166L1236.4 532.99ZM1273.65 517.893C1276.82 516.746 1279.99 515.639 1283.13 514.572L1282.49 512.678C1279.33 513.75 1276.16 514.86 1272.97 516.012L1273.65 517.893ZM1311.94 505.735C1315.19 504.844 1318.42 503.994 1321.62 503.184L1321.13 501.245C1317.91 502.059 1314.67 502.912 1311.41 503.806L1311.94 505.735ZM1351.07 496.685C1354.4 496.059 1357.69 495.476 1360.95 494.934L1360.62 492.961C1357.35 493.505 1354.04 494.091 1350.7 494.72L1351.07 496.685ZM1390.85 490.967C1394.23 490.634 1397.56 490.346 1400.83 490.102L1400.68 488.108C1397.39 488.353 1394.05 488.642 1390.65 488.976L1390.85 490.967ZM1430.92 489.002C1434.36 489.015 1437.71 489.078 1440.96 489.187L1441.02 487.188C1437.75 487.078 1434.39 487.015 1430.93 487.002L1430.92 489.002ZM1470.95 491.796C1472.63 492.047 1474.25 492.312 1475.83 492.59L1476.17 490.62C1474.58 490.34 1472.94 490.072 1471.25 489.819L1470.95 491.796Z" fill="#00DDC2"/>
</svg>
