<svg width="1566" height="575" viewBox="0 0 1566 575" fill="none" xmlns="http://www.w3.org/2000/svg">
<path d="M451.5 327.605L450.58 327.998L451.5 327.605ZM443.5 546.105L443.799 545.151L443.5 546.105ZM1136 184.605L1135.26 183.934L1136 184.605ZM4.73312 546.863C5.28431 546.828 5.70294 546.353 5.66816 545.802C5.63338 545.25 5.15836 544.832 4.60717 544.867L4.73312 546.863ZM34.7087 542.425C34.1589 542.477 33.7548 542.964 33.8062 543.514C33.8577 544.064 34.3451 544.468 34.895 544.416L34.7087 542.425ZM44.8278 543.454C45.3774 543.399 45.7783 542.909 45.7233 542.36C45.6683 541.81 45.1782 541.409 44.6286 541.464L44.8278 543.454ZM74.5697 538.191C74.0213 538.256 73.6293 538.753 73.6942 539.301C73.7591 539.85 74.2563 540.242 74.8048 540.177L74.5697 538.191ZM84.9014 538.952C85.4495 538.883 85.8385 538.384 85.7704 537.836C85.7022 537.288 85.2027 536.899 84.6546 536.967L84.9014 538.952ZM114.353 533.009C113.806 533.087 113.426 533.593 113.504 534.14C113.582 534.687 114.088 535.067 114.635 534.989L114.353 533.009ZM124.689 533.527C125.236 533.446 125.613 532.938 125.531 532.391C125.45 531.845 124.942 531.468 124.395 531.549L124.689 533.527ZM154.012 526.865C153.467 526.956 153.1 527.472 153.191 528.017C153.283 528.561 153.799 528.929 154.343 528.837L154.012 526.865ZM164.266 527.135C164.81 527.04 165.174 526.522 165.079 525.978C164.984 525.434 164.465 525.07 163.921 525.165L164.266 527.135ZM193.498 519.664C192.956 519.771 192.604 520.297 192.711 520.838C192.818 521.38 193.344 521.733 193.886 521.626L193.498 519.664ZM203.704 519.647C204.245 519.536 204.593 519.007 204.482 518.466C204.371 517.925 203.842 517.577 203.301 517.688L203.704 519.647ZM232.692 511.261C232.154 511.386 231.82 511.923 231.945 512.461C232.07 512.999 232.607 513.334 233.145 513.209L232.692 511.261ZM242.918 510.888C243.455 510.758 243.785 510.218 243.655 509.681C243.524 509.144 242.984 508.814 242.447 508.945L242.918 510.888ZM271.558 501.41C271.026 501.557 270.713 502.108 270.86 502.64C271.008 503.173 271.558 503.485 272.091 503.338L271.558 501.41ZM281.727 500.615C282.257 500.461 282.563 499.907 282.41 499.376C282.256 498.846 281.702 498.54 281.171 498.693L281.727 500.615ZM309.908 489.767C309.384 489.942 309.101 490.508 309.276 491.032C309.451 491.556 310.018 491.839 310.542 491.664L309.908 489.767ZM320.039 488.409C320.56 488.226 320.834 487.655 320.65 487.134C320.467 486.613 319.896 486.339 319.375 486.522L320.039 488.409ZM347.404 475.814C346.894 476.026 346.653 476.612 346.865 477.121C347.077 477.631 347.663 477.873 348.172 477.661L347.404 475.814ZM357.467 473.674C357.972 473.45 358.2 472.86 357.977 472.355C357.753 471.85 357.163 471.621 356.658 471.845L357.467 473.674ZM383.508 458.684C383.023 458.949 382.845 459.556 383.109 460.041C383.374 460.526 383.981 460.704 384.466 460.44L383.508 458.684ZM393.316 455.414C393.791 455.133 393.948 454.519 393.667 454.044C393.386 453.569 392.772 453.411 392.297 453.693L393.316 455.414ZM416.991 436.886C416.558 437.229 416.485 437.858 416.828 438.291C417.171 438.724 417.8 438.797 418.233 438.454L416.991 436.886ZM425.98 431.936C426.391 431.568 426.426 430.935 426.057 430.524C425.689 430.112 425.057 430.078 424.645 430.446L425.98 431.936ZM444.43 408.205C444.12 408.663 444.24 409.285 444.698 409.594C445.155 409.904 445.777 409.784 446.086 409.326L444.43 408.205ZM451.291 400.682C451.549 400.194 451.363 399.588 450.875 399.33C450.387 399.072 449.782 399.258 449.523 399.746L451.291 400.682ZM458.189 371.597C458.134 372.146 458.534 372.637 459.084 372.692C459.633 372.747 460.124 372.347 460.179 371.797L458.189 371.597ZM460.52 361.604C460.503 361.052 460.041 360.619 459.489 360.637C458.937 360.655 458.504 361.117 458.521 361.669L460.52 361.604ZM452.504 332.797C452.698 333.314 453.274 333.576 453.792 333.382C454.309 333.188 454.571 332.612 454.377 332.095L452.504 332.797ZM450.324 322.641C450.08 322.146 449.481 321.942 448.985 322.185C448.489 322.429 448.285 323.029 448.529 323.524L450.324 322.641ZM431.565 300.935C431.981 301.298 432.613 301.255 432.976 300.839C433.339 300.423 433.296 299.791 432.879 299.428L431.565 300.935ZM425.059 293.605C424.592 293.31 423.975 293.45 423.68 293.918C423.386 294.385 423.526 295.002 423.993 295.297L425.059 293.605ZM397.354 286.031C397.902 286.098 398.401 285.707 398.468 285.159C398.535 284.611 398.144 284.112 397.596 284.046L397.354 286.031ZM387.88 283.475C387.328 283.476 386.881 283.925 386.882 284.477C386.883 285.029 387.331 285.476 387.884 285.475L387.88 283.475ZM359.756 289.987C360.284 289.824 360.579 289.263 360.415 288.736C360.252 288.208 359.692 287.913 359.164 288.077L359.756 289.987ZM349.991 291.347C349.479 291.554 349.231 292.137 349.438 292.649C349.644 293.161 350.227 293.409 350.739 293.202L349.991 291.347ZM325.588 306.822C326.043 306.508 326.156 305.885 325.842 305.43C325.528 304.976 324.905 304.862 324.451 305.176L325.588 306.822ZM316.663 310.973C316.232 311.319 316.162 311.948 316.507 312.379C316.853 312.81 317.482 312.88 317.913 312.535L316.663 310.973ZM297.591 332.696C297.939 332.266 297.872 331.637 297.443 331.289C297.013 330.942 296.384 331.008 296.036 331.438L297.591 332.696ZM290.224 339.21C289.911 339.665 290.025 340.288 290.48 340.601C290.935 340.914 291.558 340.8 291.871 340.345L290.224 339.21ZM278.734 365.7C278.921 365.181 278.651 364.608 278.131 364.421C277.611 364.234 277.039 364.504 276.852 365.024L278.734 365.7ZM274.003 374.322C273.868 374.857 274.191 375.401 274.727 375.537C275.262 375.673 275.806 375.349 275.942 374.814L274.003 374.322ZM273.279 403.163C273.243 402.612 272.767 402.194 272.216 402.231C271.665 402.267 271.247 402.743 271.283 403.294L273.279 403.163ZM272.432 412.909C272.526 413.453 273.044 413.818 273.588 413.723C274.132 413.629 274.497 413.111 274.402 412.567L272.432 412.909ZM283.463 439.528C283.213 439.035 282.612 438.837 282.119 439.087C281.626 439.336 281.428 439.937 281.678 440.43L283.463 439.528ZM286.422 448.887C286.712 449.356 287.328 449.502 287.798 449.212C288.268 448.922 288.414 448.305 288.123 447.835L286.422 448.887ZM305.852 470.438C305.469 470.04 304.836 470.028 304.438 470.411C304.04 470.794 304.028 471.427 304.411 471.825L305.852 470.438ZM311.179 478.474C311.583 478.85 312.216 478.827 312.592 478.422C312.968 478.018 312.945 477.385 312.541 477.009L311.179 478.474ZM335.001 495.008C334.548 494.692 333.925 494.803 333.609 495.256C333.293 495.709 333.404 496.332 333.856 496.648L335.001 495.008ZM341.877 502.02C342.342 502.319 342.96 502.185 343.259 501.72C343.558 501.255 343.423 500.637 342.959 500.338L341.877 502.02ZM367.809 514.64C367.318 514.387 366.715 514.579 366.461 515.069C366.208 515.56 366.4 516.163 366.89 516.417L367.809 514.64ZM375.538 520.742C376.035 520.983 376.633 520.775 376.873 520.277C377.114 519.78 376.906 519.182 376.409 518.942L375.538 520.742ZM402.737 530.557C402.225 530.35 401.642 530.598 401.436 531.111C401.23 531.623 401.478 532.206 401.99 532.412L402.737 530.557ZM411.286 536.046C411.803 536.242 412.38 535.982 412.576 535.466C412.772 534.95 412.512 534.372 411.996 534.176L411.286 536.046ZM439.021 543.631C438.496 543.461 437.932 543.75 437.763 544.276C437.593 544.801 437.882 545.365 438.407 545.534L439.021 543.631ZM448.135 548.589C448.663 548.751 449.222 548.454 449.384 547.926C449.546 547.398 449.249 546.838 448.721 546.677L448.135 548.589ZM477.71 554.883C477.175 554.745 476.629 555.066 476.491 555.6C476.352 556.135 476.673 556.681 477.208 556.819L477.71 554.883ZM487.165 559.319C487.702 559.449 488.242 559.12 488.373 558.583C488.503 558.046 488.173 557.506 487.637 557.375L487.165 559.319ZM517.13 563.763C516.588 563.66 516.064 564.016 515.961 564.559C515.858 565.101 516.214 565.625 516.757 565.728L517.13 563.763ZM526.726 567.528C527.271 567.622 527.787 567.256 527.881 566.711C527.974 566.167 527.608 565.65 527.064 565.557L526.726 567.528ZM556.947 569.801C556.398 569.739 555.903 570.134 555.842 570.683C555.78 571.232 556.175 571.727 556.724 571.788L556.947 569.801ZM566.651 572.798C567.201 572.848 567.688 572.443 567.738 571.893C567.788 571.343 567.383 570.857 566.833 570.806L566.651 572.798ZM596.961 572.573C596.408 572.559 595.95 572.996 595.936 573.548C595.922 574.1 596.358 574.559 596.91 574.573L596.961 572.573ZM607.131 574.708C607.683 574.709 608.131 574.262 608.132 573.71C608.133 573.157 607.686 572.709 607.134 572.708L607.131 574.708ZM637.285 571.653C636.734 571.693 636.32 572.172 636.36 572.723C636.399 573.274 636.878 573.688 637.429 573.648L637.285 571.653ZM647.435 572.796C647.985 572.742 648.387 572.253 648.333 571.703C648.279 571.154 647.79 570.752 647.24 570.806L647.435 572.796ZM677.127 566.682C676.583 566.779 676.221 567.299 676.319 567.842C676.416 568.386 676.936 568.748 677.479 568.65L677.127 566.682ZM687.453 566.725C687.994 566.613 688.342 566.084 688.23 565.543C688.118 565.003 687.589 564.655 687.048 564.767L687.453 566.725ZM716.293 557.451C715.764 557.607 715.46 558.163 715.616 558.693C715.772 559.222 716.328 559.526 716.858 559.37L716.293 557.451ZM726.504 556.39C727.029 556.22 727.317 555.656 727.147 555.13C726.977 554.605 726.413 554.317 725.887 554.487L726.504 556.39ZM754.199 544.04C753.689 544.252 753.447 544.837 753.659 545.347C753.871 545.857 754.456 546.099 754.966 545.887L754.199 544.04ZM764.249 541.893C764.753 541.668 764.98 541.077 764.755 540.572C764.53 540.068 763.939 539.841 763.435 540.066L764.249 541.893ZM790.512 526.754C790.026 527.015 789.844 527.622 790.106 528.108C790.367 528.595 790.974 528.777 791.46 528.515L790.512 526.754ZM800.303 523.621C800.783 523.348 800.951 522.737 800.678 522.257C800.405 521.777 799.794 521.609 799.314 521.882L800.303 523.621ZM825.039 506.084C824.578 506.389 824.451 507.009 824.755 507.47C825.059 507.931 825.679 508.058 826.14 507.754L825.039 506.084ZM834.518 502.105C834.972 501.791 835.087 501.169 834.773 500.714C834.46 500.259 833.837 500.144 833.383 500.458L834.518 502.105ZM857.741 482.622C857.304 482.96 857.224 483.588 857.563 484.025C857.901 484.461 858.529 484.541 858.966 484.202L857.741 482.622ZM866.912 477.934C867.342 477.588 867.411 476.959 867.065 476.528C866.72 476.097 866.09 476.028 865.66 476.374L866.912 477.934ZM888.768 456.912C888.353 457.277 888.313 457.909 888.679 458.323C889.044 458.738 889.676 458.778 890.09 458.412L888.768 456.912ZM897.607 451.696C898.016 451.326 898.047 450.693 897.677 450.284C897.306 449.875 896.674 449.843 896.264 450.214L897.607 451.696ZM918.286 429.503C917.891 429.889 917.882 430.522 918.268 430.918C918.653 431.313 919.286 431.321 919.682 430.936L918.286 429.503ZM926.884 423.843C927.276 423.453 927.277 422.82 926.888 422.428C926.498 422.037 925.865 422.035 925.474 422.425L926.884 423.843ZM946.583 400.802C946.202 401.203 946.218 401.836 946.618 402.216C947.019 402.597 947.652 402.58 948.032 402.18L946.583 400.802ZM954.959 394.833C955.336 394.43 955.315 393.797 954.912 393.42C954.509 393.042 953.876 393.064 953.499 393.467L954.959 394.833ZM973.935 371.155C973.566 371.566 973.599 372.198 974.01 372.567C974.421 372.937 975.053 372.903 975.422 372.492L973.935 371.155ZM982.138 364.975C982.505 364.562 982.468 363.93 982.055 363.563C981.642 363.197 981.01 363.234 980.643 363.647L982.138 364.975ZM1000.57 340.898C1000.21 341.316 1000.26 341.947 1000.67 342.309C1001.09 342.67 1001.72 342.624 1002.08 342.207L1000.57 340.898ZM1008.68 334.556C1009.04 334.137 1008.99 333.506 1008.57 333.146C1008.16 332.786 1007.52 332.834 1007.16 333.253L1008.68 334.556ZM1026.8 310.22C1026.44 310.642 1026.5 311.273 1026.92 311.63C1027.34 311.987 1027.97 311.934 1028.33 311.513L1026.8 310.22ZM1034.83 303.823C1035.19 303.401 1035.13 302.77 1034.71 302.413C1034.29 302.057 1033.66 302.11 1033.3 302.532L1034.83 303.823ZM1052.81 279.397C1052.45 279.819 1052.5 280.45 1052.93 280.806C1053.35 281.161 1053.98 281.107 1054.34 280.685L1052.81 279.397ZM1060.84 272.966C1061.2 272.543 1061.14 271.912 1060.72 271.556C1060.3 271.201 1059.67 271.254 1059.31 271.676L1060.84 272.966ZM1078.86 248.563C1078.51 248.984 1078.56 249.615 1078.98 249.973C1079.4 250.331 1080.03 250.279 1080.39 249.858L1078.86 248.563ZM1086.92 242.186C1087.28 241.766 1087.23 241.135 1086.81 240.776C1086.39 240.418 1085.76 240.468 1085.4 240.888L1086.92 242.186ZM1105.14 217.945C1104.78 218.362 1104.83 218.993 1105.24 219.355C1105.66 219.718 1106.29 219.673 1106.65 219.256L1105.14 217.945ZM1113.28 211.655C1113.65 211.24 1113.6 210.608 1113.19 210.244C1112.77 209.88 1112.14 209.922 1111.78 210.338L1113.28 211.655ZM1131.87 187.687C1131.5 188.098 1131.54 188.73 1131.95 189.1C1132.36 189.469 1132.99 189.436 1133.36 189.025L1131.87 187.687ZM1140.16 181.527C1140.53 181.121 1140.51 180.488 1140.1 180.114C1139.69 179.74 1139.06 179.767 1138.69 180.174L1140.16 181.527ZM1159.69 158.392C1159.3 158.78 1159.29 159.413 1159.68 159.806C1160.07 160.199 1160.7 160.203 1161.1 159.815L1159.69 158.392ZM1168.27 152.839C1168.67 152.457 1168.69 151.824 1168.3 151.425C1167.92 151.026 1167.29 151.011 1166.89 151.393L1168.27 152.839ZM1189.3 131.013C1188.88 131.374 1188.83 132.006 1189.19 132.424C1189.55 132.842 1190.19 132.887 1190.6 132.526L1189.3 131.013ZM1198.22 126.053C1198.64 125.699 1198.7 125.069 1198.35 124.645C1197.99 124.221 1197.36 124.164 1196.94 124.518L1198.22 126.053ZM1220.69 105.708C1220.25 106.04 1220.16 106.667 1220.49 107.109C1220.82 107.55 1221.45 107.64 1221.89 107.308L1220.69 105.708ZM1229.95 101.374C1230.4 101.051 1230.5 100.426 1230.17 99.978C1229.85 99.5305 1229.22 99.4299 1228.78 99.7535L1229.95 101.374ZM1253.79 82.6778C1253.32 82.9768 1253.19 83.5956 1253.49 84.0599C1253.79 84.5243 1254.4 84.6584 1254.87 84.3595L1253.79 82.6778ZM1263.36 79.0044C1263.82 78.7139 1263.97 78.0976 1263.68 77.6279C1263.39 77.1582 1262.77 77.0128 1262.3 77.3033L1263.36 79.0044ZM1288.45 62.1148C1287.97 62.3788 1287.79 62.9861 1288.05 63.4712C1288.31 63.9563 1288.92 64.1354 1289.41 63.8714L1288.45 62.1148ZM1298.3 59.1368C1298.79 58.8819 1298.98 58.278 1298.73 57.7881C1298.47 57.2982 1297.87 57.1077 1297.38 57.3627L1298.3 59.1368ZM1324.58 44.1662C1324.08 44.393 1323.85 44.9852 1324.08 45.4887C1324.31 45.9922 1324.9 46.2165 1325.4 45.9896L1324.58 44.1662ZM1334.6 41.951C1335.11 41.7337 1335.34 41.146 1335.12 40.6382C1334.91 40.1304 1334.32 39.895 1333.81 40.1122L1334.6 41.951ZM1361.97 29.0118C1361.45 29.1994 1361.18 29.7726 1361.37 30.2921C1361.56 30.8115 1362.13 31.0805 1362.65 30.8929L1361.97 29.0118ZM1372.13 27.5719C1372.66 27.3944 1372.94 26.8266 1372.76 26.3036C1372.58 25.7806 1372.01 25.5005 1371.49 25.6779L1372.13 27.5719ZM1400.41 16.8064C1399.88 16.9526 1399.57 17.5029 1399.72 18.0354C1399.86 18.568 1400.41 18.8813 1400.94 18.7351L1400.41 16.8064ZM1410.62 16.1841C1411.15 16.0486 1411.48 15.5047 1411.34 14.9693C1411.2 14.4339 1410.66 14.1097 1410.13 14.2452L1410.62 16.1841ZM1439.7 7.71987C1439.16 7.82204 1438.8 8.34485 1438.9 8.8876C1439 9.43036 1439.53 9.78752 1440.07 9.68536L1439.7 7.71987ZM1449.95 7.93369C1450.49 7.84306 1450.86 7.32794 1450.77 6.78314C1450.68 6.23835 1450.16 5.87017 1449.62 5.96081L1449.95 7.93369ZM1479.65 1.97631C1479.1 2.03039 1478.7 2.51981 1478.75 3.06943C1478.81 3.61906 1479.3 4.02078 1479.85 3.96669L1479.65 1.97631ZM1489.83 3.10212C1490.38 3.06101 1490.79 2.58121 1490.75 2.03046C1490.71 1.47971 1490.23 1.06656 1489.68 1.10767L1489.83 3.10212ZM1519.93 0.00239879C1519.38 0.000365198 1518.93 0.446429 1518.93 0.99871C1518.92 1.55099 1519.37 2.00035 1519.92 2.00239L1519.93 0.00239879ZM1529.96 2.187C1530.51 2.20552 1530.97 1.77307 1530.99 1.2211C1531.01 0.669125 1530.58 0.206646 1530.02 0.188123L1529.96 2.187ZM1560.25 2.81853C1559.7 2.73667 1559.19 3.11308 1559.11 3.65927C1559.03 4.20545 1559.41 4.71458 1559.95 4.79644L1560.25 2.81853ZM0 547.105C0.508468 547.105 2.13974 547.026 4.73312 546.863L4.60717 544.867C1.98976 545.032 0.431012 545.105 0 545.105V547.105ZM34.895 544.416C38.031 544.123 41.3463 543.803 44.8278 543.454L44.6286 541.464C41.1515 541.812 37.8405 542.132 34.7087 542.425L34.895 544.416ZM74.8048 540.177C78.0931 539.788 81.4607 539.379 84.9014 538.952L84.6546 536.967C81.2179 537.394 77.8542 537.802 74.5697 538.191L74.8048 540.177ZM114.635 534.989C117.945 534.518 121.297 534.031 124.689 533.527L124.395 531.549C121.008 532.052 117.659 532.539 114.353 533.009L114.635 534.989ZM154.343 528.837C157.629 528.285 160.937 527.718 164.266 527.135L163.921 525.165C160.597 525.747 157.293 526.313 154.012 526.865L154.343 528.837ZM193.886 521.626C197.149 520.981 200.423 520.322 203.704 519.647L203.301 517.688C200.025 518.362 196.757 519.02 193.498 519.664L193.886 521.626ZM233.145 513.209C236.404 512.451 239.663 511.678 242.918 510.888L242.447 508.945C239.198 509.732 235.946 510.504 232.692 511.261L233.145 513.209ZM272.091 503.338C275.315 502.447 278.528 501.539 281.727 500.615L281.171 498.693C277.98 499.616 274.775 500.521 271.558 501.41L272.091 503.338ZM310.542 491.664C313.732 490.598 316.899 489.513 320.039 488.409L319.375 486.522C316.245 487.623 313.089 488.705 309.908 489.767L310.542 491.664ZM348.172 477.661C351.312 476.355 354.411 475.026 357.467 473.674L356.658 471.845C353.616 473.191 350.53 474.514 347.404 475.814L348.172 477.661ZM384.466 460.44C387.482 458.795 390.434 457.119 393.316 455.414L392.297 453.693C389.436 455.386 386.505 457.049 383.508 458.684L384.466 460.44ZM418.233 438.454C420.923 436.322 423.507 434.15 425.98 431.936L424.645 430.446C422.205 432.631 419.651 434.778 416.991 436.886L418.233 438.454ZM446.086 409.326C447.997 406.502 449.735 403.621 451.291 400.682L449.523 399.746C448.003 402.618 446.302 405.438 444.43 408.205L446.086 409.326ZM460.179 371.797C460.514 368.459 460.631 365.062 460.52 361.604L458.521 361.669C458.63 365.039 458.516 368.348 458.189 371.597L460.179 371.797ZM454.377 332.095C453.771 330.479 453.119 328.851 452.42 327.213L450.58 327.998C451.268 329.609 451.909 331.209 452.504 332.797L454.377 332.095ZM452.42 327.213C451.75 325.643 451.051 324.119 450.324 322.641L448.529 323.524C449.24 324.969 449.924 326.46 450.58 327.998L452.42 327.213ZM432.879 299.428C430.384 297.252 427.772 295.314 425.059 293.605L423.993 295.297C426.619 296.951 429.148 298.828 431.565 300.935L432.879 299.428ZM397.596 284.046C394.401 283.656 391.157 283.469 387.88 283.475L387.884 285.475C391.082 285.469 394.244 285.652 397.354 286.031L397.596 284.046ZM359.164 288.077C356.091 289.03 353.029 290.122 349.991 291.347L350.739 293.202C353.727 291.997 356.737 290.923 359.756 289.987L359.164 288.077ZM324.451 305.176C321.797 307.011 319.198 308.945 316.663 310.973L317.913 312.535C320.411 310.536 322.973 308.629 325.588 306.822L324.451 305.176ZM296.036 331.438C293.999 333.956 292.058 336.549 290.224 339.21L291.871 340.345C293.675 337.727 295.585 335.175 297.591 332.696L296.036 331.438ZM276.852 365.024C275.755 368.074 274.802 371.176 274.003 374.322L275.942 374.814C276.724 371.732 277.658 368.692 278.734 365.7L276.852 365.024ZM271.283 403.294C271.493 406.479 271.872 409.686 272.432 412.909L274.402 412.567C273.855 409.414 273.484 406.278 273.279 403.163L271.283 403.294ZM281.678 440.43C283.103 443.251 284.682 446.071 286.422 448.887L288.123 447.835C286.413 445.067 284.862 442.297 283.463 439.528L281.678 440.43ZM304.411 471.825C306.551 474.051 308.807 476.268 311.179 478.474L312.541 477.009C310.195 474.828 307.966 472.637 305.852 470.438L304.411 471.825ZM333.856 496.648C336.439 498.451 339.112 500.242 341.877 502.02L342.959 500.338C340.214 498.573 337.562 496.796 335.001 495.008L333.856 496.648ZM366.89 516.417C369.701 517.87 372.583 519.312 375.538 520.742L376.409 518.942C373.47 517.519 370.604 516.085 367.809 514.64L366.89 516.417ZM401.99 532.412C405.027 533.635 408.125 534.846 411.286 536.046L411.996 534.176C408.847 532.981 405.761 531.775 402.737 530.557L401.99 532.412ZM438.407 545.534C439.992 546.045 441.59 546.554 443.201 547.059L443.799 545.151C442.193 544.647 440.601 544.14 439.021 543.631L438.407 545.534ZM443.201 547.059C444.85 547.577 446.495 548.087 448.135 548.589L448.721 546.677C447.085 546.176 445.445 545.667 443.799 545.151L443.201 547.059ZM477.208 556.819C480.547 557.686 483.866 558.519 487.165 559.319L487.637 557.375C484.348 556.578 481.039 555.747 477.71 554.883L477.208 556.819ZM516.757 565.728C520.101 566.363 523.424 566.963 526.726 567.528L527.064 565.557C523.773 564.994 520.462 564.396 517.13 563.763L516.757 565.728ZM556.724 571.788C560.055 572.161 563.363 572.498 566.651 572.798L566.833 570.806C563.559 570.507 560.264 570.172 556.947 569.801L556.724 571.788ZM596.91 574.573C600.341 574.658 603.748 574.703 607.131 574.708L607.134 572.708C603.766 572.704 600.375 572.659 596.961 572.573L596.91 574.573ZM637.429 573.648C640.788 573.405 644.123 573.121 647.435 572.796L647.24 570.806C643.945 571.129 640.627 571.411 637.285 571.653L637.429 573.648ZM677.479 568.65C680.828 568.051 684.153 567.409 687.453 566.725L687.048 564.767C683.765 565.447 680.458 566.086 677.127 566.682L677.479 568.65ZM716.858 559.37C720.096 558.417 723.311 557.424 726.504 556.39L725.887 554.487C722.712 555.516 719.514 556.504 716.293 557.451L716.858 559.37ZM754.966 545.887C758.081 544.594 761.175 543.263 764.249 541.893L763.435 540.066C760.377 541.429 757.299 542.754 754.199 544.04L754.966 545.887ZM791.46 528.515C794.426 526.919 797.373 525.287 800.303 523.621L799.314 521.882C796.398 523.541 793.464 525.165 790.512 526.754L791.46 528.515ZM826.14 507.754C828.948 505.902 831.74 504.019 834.518 502.105L833.383 500.458C830.617 502.364 827.836 504.24 825.039 506.084L826.14 507.754ZM858.966 484.202C861.627 482.14 864.275 480.05 866.912 477.934L865.66 476.374C863.032 478.483 860.393 480.566 857.741 482.622L858.966 484.202ZM890.09 458.412C892.605 456.196 895.111 453.957 897.607 451.696L896.264 450.214C893.775 452.469 891.276 454.702 888.768 456.912L890.09 458.412ZM919.682 430.936C922.09 428.59 924.49 426.225 926.884 423.843L925.474 422.425C923.084 424.803 920.689 427.163 918.286 429.503L919.682 430.936ZM948.032 402.18C950.346 399.746 952.655 397.297 954.959 394.833L953.499 393.467C951.198 395.927 948.892 398.372 946.583 400.802L948.032 402.18ZM975.422 372.492C977.663 369.998 979.902 367.492 982.138 364.975L980.643 363.647C978.409 366.161 976.173 368.664 973.935 371.155L975.422 372.492ZM1002.08 342.207C1004.28 339.665 1006.48 337.114 1008.68 334.556L1007.16 333.253C1004.97 335.809 1002.77 338.358 1000.57 340.898L1002.08 342.207ZM1028.33 311.513C1030.49 308.955 1032.66 306.391 1034.83 303.823L1033.3 302.532C1031.13 305.1 1028.97 307.663 1026.8 310.22L1028.33 311.513ZM1054.34 280.685C1056.5 278.115 1058.67 275.542 1060.84 272.966L1059.31 271.676C1057.14 274.253 1054.97 276.826 1052.81 279.397L1054.34 280.685ZM1080.39 249.858C1082.56 247.301 1084.74 244.744 1086.92 242.186L1085.4 240.888C1083.21 243.447 1081.04 246.005 1078.86 248.563L1080.39 249.858ZM1106.65 219.256C1108.86 216.721 1111.07 214.187 1113.28 211.655L1111.78 210.338C1109.56 212.872 1107.35 215.407 1105.14 217.945L1106.65 219.256ZM1133.36 189.025C1134.48 187.775 1135.61 186.525 1136.74 185.276L1135.26 183.934C1134.13 185.184 1133 186.435 1131.87 187.687L1133.36 189.025ZM1136.74 185.276C1137.88 184.018 1139.02 182.769 1140.16 181.527L1138.69 180.174C1137.54 181.419 1136.4 182.673 1135.26 183.934L1136.74 185.276ZM1161.1 159.815C1163.48 157.456 1165.88 155.131 1168.27 152.839L1166.89 151.393C1164.49 153.693 1162.09 156.026 1159.69 158.392L1161.1 159.815ZM1190.6 132.526C1193.14 130.334 1195.68 128.177 1198.22 126.053L1196.94 124.518C1194.39 126.649 1191.84 128.814 1189.3 131.013L1190.6 132.526ZM1221.89 107.308C1224.57 105.295 1227.26 103.317 1229.95 101.374L1228.78 99.7535C1226.08 101.703 1223.38 103.688 1220.69 105.708L1221.89 107.308ZM1254.87 84.3595C1257.7 82.5377 1260.53 80.7528 1263.36 79.0044L1262.3 77.3033C1259.47 79.0581 1256.63 80.8494 1253.79 82.6778L1254.87 84.3595ZM1289.41 63.8714C1292.38 62.2551 1295.34 60.6771 1298.3 59.1368L1297.38 57.3627C1294.41 58.9087 1291.43 60.4925 1288.45 62.1148L1289.41 63.8714ZM1325.4 45.9896C1328.48 44.6045 1331.54 43.2586 1334.6 41.951L1333.81 40.1122C1330.74 41.4248 1327.67 42.7758 1324.58 44.1662L1325.4 45.9896ZM1362.65 30.8929C1365.82 29.746 1368.99 28.6393 1372.13 27.5719L1371.49 25.6779C1368.33 26.7495 1365.16 27.8605 1361.97 29.0118L1362.65 30.8929ZM1400.94 18.7351C1404.19 17.8441 1407.42 16.9942 1410.62 16.1841L1410.13 14.2452C1406.91 15.0586 1403.67 15.9119 1400.41 16.8064L1400.94 18.7351ZM1440.07 9.68536C1443.4 9.05906 1446.69 8.47573 1449.95 7.93369L1449.62 5.96081C1446.35 6.50516 1443.04 7.09096 1439.7 7.71987L1440.07 9.68536ZM1479.85 3.96669C1483.23 3.6339 1486.56 3.3465 1489.83 3.10212L1489.68 1.10767C1486.39 1.35322 1483.05 1.64198 1479.65 1.97631L1479.85 3.96669ZM1519.92 2.00239C1523.36 2.01504 1526.71 2.07791 1529.96 2.187L1530.02 0.188123C1526.75 0.0783545 1523.39 0.0151284 1519.93 0.00239879L1519.92 2.00239ZM1559.95 4.79644C1561.63 5.04726 1563.25 5.31218 1564.83 5.59004L1565.17 3.62047C1563.58 3.33951 1561.94 3.07182 1560.25 2.81853L1559.95 4.79644Z" fill="#00DDC2"/>
</svg>
