<svg width="1759" height="569" viewBox="0 0 1759 569" fill="none" xmlns="http://www.w3.org/2000/svg">
<path d="M443.5 388.425L443.924 387.519L443.5 388.425ZM355 543.425L355.617 542.638L355 543.425ZM941.5 379.425L941.439 378.427L941.5 379.425ZM1539.5 66.4248L1540.47 66.185L1539.5 66.4248ZM5.46889 497.895C5.88711 497.534 5.93374 496.902 5.57304 496.484C5.21233 496.066 4.58089 496.019 4.16266 496.38L5.46889 497.895ZM27.4072 476.424C26.986 476.781 26.9341 477.413 27.2914 477.834C27.6486 478.255 28.2796 478.307 28.7008 477.95L27.4072 476.424ZM36.5073 471.375C36.9311 471.021 36.9874 470.39 36.6332 469.966C36.279 469.542 35.6484 469.486 35.2246 469.84L36.5073 471.375ZM58.9727 450.558C58.5383 450.899 58.4626 451.528 58.8037 451.962C59.1447 452.396 59.7734 452.472 60.2078 452.131L58.9727 450.558ZM68.2725 445.882C68.7112 445.547 68.7951 444.919 68.4597 444.48C68.1243 444.042 67.4967 443.958 67.0579 444.293L68.2725 445.882ZM91.7921 426.238C91.3384 426.553 91.2259 427.176 91.5408 427.63C91.8557 428.084 92.4788 428.196 92.9325 427.882L91.7921 426.238ZM101.358 422.141C101.818 421.835 101.941 421.214 101.634 420.754C101.327 420.295 100.706 420.172 100.247 420.479L101.358 422.141ZM126.202 404.197C125.725 404.476 125.565 405.089 125.844 405.565C126.123 406.042 126.736 406.202 127.212 405.923L126.202 404.197ZM136.056 400.873C136.538 400.604 136.712 399.996 136.443 399.513C136.175 399.03 135.566 398.857 135.083 399.125L136.056 400.873ZM162.387 385.176C161.886 385.409 161.669 386.004 161.902 386.505C162.134 387.005 162.729 387.223 163.23 386.99L162.387 385.176ZM172.495 382.827C173.001 382.608 173.234 382.019 173.014 381.512C172.795 381.005 172.206 380.773 171.699 380.992L172.495 382.827ZM200.32 369.979C199.796 370.155 199.514 370.722 199.69 371.246C199.866 371.769 200.433 372.051 200.957 371.875L200.32 369.979ZM210.637 368.784C211.166 368.624 211.465 368.065 211.305 367.537C211.145 367.008 210.587 366.709 210.058 366.869L210.637 368.784ZM239.799 359.374C239.257 359.483 238.907 360.011 239.016 360.552C239.125 361.094 239.652 361.444 240.194 361.335L239.799 359.374ZM250.212 359.49C250.757 359.399 251.125 358.883 251.034 358.339C250.943 357.794 250.427 357.426 249.883 357.517L250.212 359.49ZM280.349 353.997C279.798 354.033 279.38 354.508 279.415 355.059C279.45 355.61 279.926 356.029 280.477 355.993L280.349 353.997ZM290.6 355.517C291.152 355.501 291.586 355.04 291.57 354.488C291.553 353.936 291.092 353.502 290.54 353.518L290.6 355.517ZM321.207 354.17C320.657 354.13 320.178 354.544 320.138 355.095C320.098 355.646 320.512 356.125 321.063 356.165L321.207 354.17ZM331.22 357.07C331.769 357.128 332.262 356.73 332.32 356.181C332.378 355.632 331.98 355.139 331.431 355.081L331.22 357.07ZM361.693 359.791C361.152 359.681 360.624 360.029 360.513 360.57C360.402 361.111 360.75 361.64 361.291 361.751L361.693 359.791ZM371.236 363.952C371.773 364.08 372.313 363.748 372.44 363.21C372.568 362.673 372.236 362.134 371.698 362.006L371.236 363.952ZM401.179 370.411C400.654 370.237 400.088 370.52 399.914 371.044C399.74 371.568 400.024 372.135 400.548 372.309L401.179 370.411ZM410.138 375.644C410.657 375.832 411.23 375.564 411.419 375.045C411.607 374.526 411.339 373.953 410.82 373.764L410.138 375.644ZM439.209 385.349C438.706 385.121 438.113 385.345 437.885 385.848C437.658 386.351 437.881 386.943 438.384 387.171L439.209 385.349ZM447.635 391.511C448.131 391.753 448.73 391.548 448.973 391.052C449.215 390.556 449.01 389.957 448.514 389.714L447.635 391.511ZM474.15 404.151C473.688 403.849 473.068 403.98 472.767 404.442C472.465 404.905 472.595 405.524 473.058 405.826L474.15 404.151ZM481.21 411.448C481.656 411.774 482.281 411.676 482.607 411.23C482.933 410.784 482.835 410.159 482.389 409.833L481.21 411.448ZM504.476 429.466C504.106 429.056 503.474 429.023 503.064 429.393C502.654 429.763 502.622 430.396 502.992 430.806L504.476 429.466ZM509.191 438.316C509.522 438.758 510.149 438.847 510.591 438.516C511.033 438.185 511.122 437.558 510.791 437.116L509.191 438.316ZM524.39 463.407C524.232 462.878 523.674 462.577 523.145 462.735C522.616 462.893 522.315 463.451 522.473 463.98L524.39 463.407ZM524.579 473.406C524.66 473.952 525.169 474.329 525.715 474.248C526.261 474.166 526.638 473.658 526.557 473.111L524.579 473.406ZM524.316 502.656C524.477 502.127 524.179 501.569 523.651 501.408C523.122 501.247 522.564 501.545 522.403 502.073L524.316 502.656ZM518.957 511.111C518.726 511.612 518.946 512.206 519.448 512.437C519.949 512.668 520.543 512.448 520.774 511.947L518.957 511.111ZM503.73 536.219C504.118 535.826 504.114 535.193 503.721 534.805C503.328 534.417 502.695 534.421 502.307 534.814L503.73 536.219ZM495.141 541.378C494.716 541.73 494.657 542.361 495.009 542.786C495.362 543.211 495.992 543.27 496.418 542.917L495.141 541.378ZM471.221 558.524C471.725 558.298 471.95 557.706 471.724 557.202C471.498 556.698 470.906 556.473 470.402 556.699L471.221 558.524ZM461.363 560.297C460.841 560.479 460.566 561.049 460.748 561.571C460.93 562.092 461.501 562.367 462.022 562.185L461.363 560.297ZM433.033 568.304C433.584 568.26 433.994 567.779 433.951 567.228C433.907 566.678 433.425 566.267 432.875 566.31L433.033 568.304ZM423.155 566.656C422.603 566.652 422.151 567.096 422.147 567.648C422.142 568.2 422.586 568.651 423.139 568.656L423.155 566.656ZM393.806 564.468C394.338 564.619 394.891 564.31 395.041 563.779C395.192 563.247 394.883 562.695 394.352 562.544L393.806 564.468ZM385.117 559.469C384.601 559.271 384.023 559.529 383.825 560.045C383.628 560.56 383.885 561.139 384.401 561.336L385.117 559.469ZM358.39 547.224C358.839 547.547 359.463 547.445 359.786 546.997C360.109 546.549 360.007 545.924 359.559 545.602L358.39 547.224ZM351.846 539.314C351.452 538.927 350.819 538.932 350.431 539.326C350.044 539.72 350.05 540.353 350.443 540.74L351.846 539.314ZM334.013 514.17C334.211 514.686 334.79 514.943 335.305 514.745C335.821 514.547 336.078 513.969 335.881 513.453L334.013 514.17ZM332.653 503.696C332.503 503.164 331.951 502.855 331.42 503.005C330.888 503.154 330.578 503.707 330.728 504.238L332.653 503.696ZM325.751 473.428C325.781 473.98 326.253 474.402 326.805 474.371C327.356 474.341 327.778 473.869 327.748 473.318L325.751 473.428ZM327.506 463.034C327.511 462.482 327.066 462.031 326.514 462.026C325.962 462.022 325.511 462.466 325.506 463.018L327.506 463.034ZM328.584 432C328.481 432.543 328.837 433.066 329.379 433.17C329.922 433.273 330.445 432.917 330.549 432.375L328.584 432ZM332.77 422.337C332.906 421.801 332.581 421.258 332.046 421.122C331.51 420.987 330.966 421.312 330.831 421.847L332.77 422.337ZM341.126 392.417C340.898 392.92 341.121 393.513 341.623 393.741C342.126 393.969 342.719 393.747 342.947 393.244L341.126 392.417ZM347.487 384.004C347.746 383.516 347.56 382.911 347.072 382.652C346.584 382.394 345.978 382.58 345.72 383.068L347.487 384.004ZM362.767 356.983C362.423 357.415 362.496 358.044 362.928 358.388C363.361 358.731 363.99 358.659 364.333 358.226L362.767 356.983ZM370.969 350.37C371.338 349.959 371.304 349.327 370.894 348.957C370.483 348.588 369.85 348.622 369.481 349.033L370.969 350.37ZM392.305 327.815C391.869 328.154 391.79 328.782 392.129 329.218C392.468 329.654 393.096 329.733 393.532 329.394L392.305 327.815ZM401.836 323.311C402.291 322.997 402.405 322.375 402.091 321.92C401.778 321.465 401.155 321.351 400.7 321.665L401.836 323.311ZM427.68 306.093C427.181 306.331 426.971 306.928 427.209 307.427C427.447 307.925 428.044 308.136 428.543 307.897L427.68 306.093ZM437.99 303.659C438.499 303.445 438.739 302.859 438.525 302.35C438.311 301.84 437.725 301.601 437.216 301.815L437.99 303.659ZM466.607 291.715C466.075 291.861 465.762 292.412 465.908 292.944C466.054 293.477 466.604 293.79 467.137 293.644L466.607 291.715ZM477.12 291.114C477.658 290.988 477.992 290.451 477.867 289.913C477.742 289.375 477.204 289.041 476.666 289.166L477.12 291.114ZM507.358 283.721C506.81 283.79 506.422 284.29 506.491 284.838C506.56 285.386 507.06 285.775 507.608 285.706L507.358 283.721ZM517.785 284.583C518.335 284.531 518.738 284.043 518.686 283.493C518.634 282.944 518.146 282.54 517.596 282.592L517.785 284.583ZM548.692 280.958C548.14 280.965 547.698 281.419 547.705 281.971C547.712 282.523 548.165 282.965 548.717 282.958L548.692 280.958ZM558.987 283.024C559.539 283.046 560.004 282.617 560.025 282.065C560.047 281.513 559.617 281.048 559.066 281.026L558.987 283.024ZM589.178 285.251C588.639 285.128 588.103 285.465 587.98 286.003C587.857 286.542 588.194 287.078 588.733 287.201L589.178 285.251ZM598.475 289.654C599.007 289.8 599.557 289.487 599.703 288.954C599.849 288.422 599.536 287.871 599.003 287.725L598.475 289.654ZM627.838 297.143C627.32 296.951 626.745 297.216 626.553 297.734C626.361 298.252 626.626 298.827 627.144 299.019L627.838 297.143ZM636.549 302.599C637.064 302.8 637.644 302.545 637.844 302.031C638.045 301.516 637.791 300.937 637.277 300.736L636.549 302.599ZM665.289 312.237C664.781 312.021 664.194 312.258 663.978 312.766C663.762 313.275 663.999 313.862 664.508 314.078L665.289 312.237ZM673.787 318.038C674.294 318.256 674.882 318.02 675.1 317.513C675.317 317.005 675.082 316.417 674.574 316.2L673.787 318.038ZM702.402 328.096C701.893 327.881 701.307 328.119 701.092 328.628C700.877 329.137 701.115 329.723 701.624 329.938L702.402 328.096ZM710.925 333.836C711.435 334.048 712.02 333.806 712.232 333.296C712.444 332.786 712.202 332.201 711.692 331.989L710.925 333.836ZM739.779 343.231C739.264 343.034 738.685 343.292 738.488 343.808C738.291 344.324 738.549 344.902 739.065 345.099L739.779 343.231ZM748.504 348.643C749.023 348.834 749.597 348.569 749.788 348.05C749.979 347.532 749.714 346.957 749.195 346.767L748.504 348.643ZM777.785 356.59C777.259 356.423 776.697 356.714 776.53 357.24C776.363 357.767 776.654 358.329 777.18 358.496L777.785 356.59ZM786.82 361.463C787.349 361.621 787.906 361.32 788.064 360.791C788.221 360.261 787.92 359.704 787.391 359.547L786.82 361.463ZM816.572 367.351C816.034 367.224 815.496 367.557 815.369 368.095C815.242 368.632 815.575 369.171 816.113 369.298L816.572 367.351ZM825.961 371.51C826.501 371.626 827.032 371.281 827.148 370.741C827.263 370.201 826.919 369.67 826.379 369.554L825.961 371.51ZM856.091 374.878C855.545 374.799 855.038 375.178 854.959 375.725C854.88 376.271 855.259 376.778 855.806 376.857L856.091 374.878ZM865.834 378.184C866.382 378.25 866.88 377.859 866.946 377.311C867.012 376.763 866.621 376.265 866.073 376.199L865.834 378.184ZM896.149 378.733C895.597 378.707 895.129 379.132 895.102 379.684C895.076 380.236 895.502 380.704 896.053 380.731L896.149 378.733ZM906.165 381.092C906.717 381.105 907.175 380.668 907.188 380.116C907.201 379.564 906.764 379.106 906.212 379.093L906.165 381.092ZM936.371 378.707C935.82 378.734 935.395 379.203 935.422 379.755C935.449 380.306 935.918 380.731 936.469 380.704L936.371 378.707ZM946.519 380.021C947.069 379.966 947.469 379.476 947.414 378.926C947.359 378.377 946.869 377.976 946.319 378.031L946.519 380.021ZM975.622 372C975.094 372.16 974.795 372.718 974.954 373.246C975.114 373.775 975.672 374.074 976.201 373.914L975.622 372ZM985.835 370.73C986.354 370.544 986.625 369.971 986.439 369.451C986.253 368.931 985.681 368.661 985.161 368.847L985.835 370.73ZM1012.7 357.02C1012.21 357.266 1012 357.866 1012.25 358.36C1012.5 358.855 1013.1 359.057 1013.59 358.812L1012.7 357.02ZM1022.66 354.136C1023.14 353.876 1023.33 353.27 1023.07 352.783C1022.81 352.296 1022.2 352.112 1021.71 352.373L1022.66 354.136ZM1047.7 337.144C1047.23 337.439 1047.09 338.057 1047.39 338.524C1047.68 338.99 1048.3 339.128 1048.77 338.833L1047.7 337.144ZM1057.13 333.411C1057.59 333.107 1057.72 332.486 1057.42 332.026C1057.11 331.565 1056.49 331.439 1056.03 331.743L1057.13 333.411ZM1080.73 314.467C1080.29 314.794 1080.19 315.42 1080.52 315.865C1080.84 316.31 1081.47 316.406 1081.91 316.079L1080.73 314.467ZM1090.07 310.001C1090.51 309.668 1090.59 309.041 1090.26 308.601C1089.93 308.16 1089.3 308.073 1088.86 308.406L1090.07 310.001ZM1112.6 289.793C1112.17 290.141 1112.1 290.771 1112.45 291.2C1112.8 291.629 1113.43 291.695 1113.86 291.347L1112.6 289.793ZM1121.6 285.011C1122.02 284.659 1122.08 284.028 1121.73 283.603C1121.38 283.177 1120.75 283.117 1120.32 283.469L1121.6 285.011ZM1143.34 263.966C1142.92 264.328 1142.88 264.96 1143.24 265.377C1143.6 265.794 1144.23 265.839 1144.65 265.478L1143.34 263.966ZM1152.23 258.863C1152.65 258.498 1152.69 257.866 1152.32 257.451C1151.96 257.036 1151.33 256.996 1150.91 257.36L1152.23 258.863ZM1173.42 237.251C1173.01 237.622 1172.98 238.255 1173.35 238.664C1173.72 239.073 1174.35 239.104 1174.76 238.732L1173.42 237.251ZM1182.22 231.933C1182.63 231.56 1182.66 230.927 1182.28 230.52C1181.91 230.113 1181.28 230.085 1180.87 230.458L1182.22 231.933ZM1203.01 209.966C1202.61 210.343 1202.59 210.976 1202.96 211.38C1203.34 211.783 1203.97 211.805 1204.38 211.427L1203.01 209.966ZM1211.72 204.543C1212.13 204.165 1212.15 203.532 1211.77 203.129C1211.39 202.727 1210.76 202.707 1210.36 203.085L1211.72 204.543ZM1232.3 182.36C1231.9 182.74 1231.88 183.373 1232.26 183.773C1232.64 184.174 1233.28 184.191 1233.68 183.811L1232.3 182.36ZM1240.98 176.874C1241.38 176.494 1241.4 175.861 1241.02 175.46C1240.64 175.06 1240.01 175.044 1239.6 175.424L1240.98 176.874ZM1261.49 154.617C1261.09 154.997 1261.08 155.63 1261.46 156.031C1261.84 156.431 1262.47 156.448 1262.87 156.067L1261.49 154.617ZM1270.15 149.161C1270.55 148.781 1270.57 148.149 1270.19 147.748C1269.81 147.347 1269.17 147.33 1268.77 147.71L1270.15 149.161ZM1290.74 126.994C1290.34 127.371 1290.32 128.004 1290.7 128.407C1291.07 128.81 1291.71 128.831 1292.11 128.453L1290.74 126.994ZM1299.46 121.588C1299.86 121.211 1299.89 120.579 1299.51 120.174C1299.14 119.77 1298.5 119.747 1298.1 120.124L1299.46 121.588ZM1320.34 99.6711C1319.93 100.042 1319.9 100.674 1320.27 101.084C1320.64 101.493 1321.27 101.524 1321.68 101.153L1320.34 99.6711ZM1329.19 94.3872C1329.6 94.0187 1329.64 93.3865 1329.27 92.9751C1328.9 92.5637 1328.27 92.5289 1327.85 92.8974L1329.19 94.3872ZM1350.58 72.9917C1350.16 73.3504 1350.11 73.9816 1350.47 74.4016C1350.82 74.8216 1351.46 74.8713 1351.88 74.5127L1350.58 72.9917ZM1359.45 68.1128C1359.87 67.7585 1359.93 67.1278 1359.57 66.7042C1359.22 66.2805 1358.59 66.2244 1358.16 66.5787L1359.45 68.1128ZM1381.81 47.5614C1381.37 47.8979 1381.29 48.5257 1381.62 48.9637C1381.96 49.4016 1382.59 49.4838 1383.03 49.1473L1381.81 47.5614ZM1391.08 43.074C1391.52 42.7456 1391.62 42.1194 1391.29 41.6754C1390.96 41.2314 1390.33 41.1376 1389.89 41.466L1391.08 43.074ZM1414.66 24.4474C1414.19 24.7411 1414.05 25.3584 1414.35 25.8261C1414.64 26.2938 1415.26 26.4349 1415.73 26.1412L1414.66 24.4474ZM1424.51 20.841C1424.99 20.5648 1425.15 19.9532 1424.88 19.4749C1424.6 18.9967 1423.99 18.8328 1423.51 19.109L1424.51 20.841ZM1450.69 6.01257C1450.17 6.20484 1449.91 6.78041 1450.1 7.29815C1450.29 7.81589 1450.87 8.07973 1451.39 7.88747L1450.69 6.01257ZM1460.96 4.79783C1461.49 4.65317 1461.8 4.10381 1461.66 3.57081C1461.51 3.03781 1460.97 2.723 1460.43 2.86766L1460.96 4.79783ZM1490.67 0.993203C1490.13 0.885556 1489.6 1.23742 1489.49 1.77911C1489.38 2.3208 1489.74 2.8472 1490.28 2.95484L1490.67 0.993203ZM1499.61 5.88451C1500.11 6.10719 1500.7 5.87799 1500.93 5.37258C1501.15 4.86718 1500.92 4.27695 1500.41 4.05428L1499.61 5.88451ZM1523.15 23.9163C1522.84 23.4603 1522.22 23.343 1521.76 23.6544C1521.3 23.9659 1521.19 24.5881 1521.5 25.0442L1523.15 23.9163ZM1526.56 33.5122C1526.82 34.0012 1527.42 34.1894 1527.91 33.9326C1528.4 33.6758 1528.59 33.0712 1528.33 32.5823L1526.56 33.5122ZM1539.11 60.9542C1538.96 60.4216 1538.41 60.1082 1537.88 60.2543C1537.35 60.4003 1537.03 60.9505 1537.18 61.4831L1539.11 60.9542ZM1539.82 71.7981C1539.96 72.3332 1540.5 72.6561 1541.04 72.5195C1541.57 72.3828 1541.89 71.8382 1541.76 71.3031L1539.82 71.7981ZM1550.22 101.377C1550.06 100.849 1549.5 100.553 1548.97 100.716C1548.44 100.879 1548.15 101.439 1548.31 101.967L1550.22 101.377ZM1551.5 111.993C1551.67 112.517 1552.24 112.803 1552.76 112.631C1553.29 112.459 1553.57 111.894 1553.4 111.37L1551.5 111.993ZM1563.95 140.809C1563.74 140.294 1563.17 140.04 1562.65 140.24C1562.14 140.441 1561.88 141.021 1562.08 141.535L1563.95 140.809ZM1565.96 151.205C1566.17 151.715 1566.76 151.958 1567.27 151.748C1567.78 151.537 1568.02 150.953 1567.81 150.442L1565.96 151.205ZM1580.61 178.989C1580.37 178.492 1579.77 178.285 1579.27 178.527C1578.77 178.768 1578.57 179.367 1578.81 179.863L1580.61 178.989ZM1583.51 189.262C1583.76 189.753 1584.36 189.947 1584.85 189.695C1585.34 189.443 1585.54 188.84 1585.28 188.349L1583.51 189.262ZM1600.49 215.652C1600.21 215.179 1599.59 215.027 1599.12 215.313C1598.65 215.598 1598.5 216.213 1598.78 216.686L1600.49 215.652ZM1604.31 225.593C1604.6 226.059 1605.22 226.196 1605.69 225.899C1606.15 225.602 1606.29 224.984 1605.99 224.518L1604.31 225.593ZM1623.76 250.204C1623.43 249.763 1622.8 249.674 1622.36 250.005C1621.92 250.337 1621.83 250.964 1622.16 251.406L1623.76 250.204ZM1628.57 259.708C1628.92 260.14 1629.55 260.212 1629.98 259.868C1630.41 259.525 1630.48 258.896 1630.14 258.463L1628.57 259.708ZM1650.6 282.069C1650.22 281.668 1649.58 281.651 1649.18 282.031C1648.78 282.411 1648.76 283.043 1649.14 283.445L1650.6 282.069ZM1656.46 290.936C1656.85 291.325 1657.48 291.323 1657.87 290.931C1658.26 290.539 1658.26 289.906 1657.87 289.517L1656.46 290.936ZM1681.08 310.41C1680.65 310.062 1680.02 310.127 1679.67 310.556C1679.32 310.984 1679.39 311.614 1679.82 311.962L1681.08 310.41ZM1688.08 318.427C1688.52 318.759 1689.15 318.671 1689.48 318.23C1689.81 317.789 1689.72 317.162 1689.28 316.83L1688.08 318.427ZM1715.27 334.076C1714.79 333.8 1714.18 333.965 1713.9 334.444C1713.63 334.922 1713.79 335.534 1714.27 335.809L1715.27 334.076ZM1723.49 340.826C1723.98 341.078 1724.59 340.883 1724.84 340.392C1725.09 339.9 1724.9 339.298 1724.4 339.046L1723.49 340.826ZM1753.21 350.673C1752.68 350.524 1752.13 350.834 1751.98 351.365C1751.83 351.897 1752.14 352.449 1752.67 352.599L1753.21 350.673ZM1.65224 501.183C2.91128 500.1 4.18352 499.003 5.46889 497.895L4.16266 496.38C2.87763 497.488 1.60601 498.584 0.347758 499.667L1.65224 501.183ZM28.7008 477.95C31.2611 475.778 33.8633 473.585 36.5073 471.375L35.2246 469.84C32.5764 472.054 29.9706 474.25 27.4072 476.424L28.7008 477.95ZM60.2078 452.131C62.8606 450.048 65.5489 447.964 68.2725 445.882L67.0579 444.293C64.3271 446.381 61.632 448.47 58.9727 450.558L60.2078 452.131ZM92.9325 427.882C95.7095 425.954 98.5181 424.04 101.358 422.141L100.247 420.479C97.3968 422.384 94.5784 424.305 91.7921 426.238L92.9325 427.882ZM127.212 405.923C130.131 404.214 133.079 402.53 136.056 400.873L135.083 399.125C132.093 400.789 129.132 402.481 126.202 404.197L127.212 405.923ZM163.23 386.99C166.29 385.566 169.379 384.178 172.495 382.827L171.699 380.992C168.567 382.35 165.463 383.746 162.387 385.176L163.23 386.99ZM200.957 371.875C204.157 370.8 207.384 369.768 210.637 368.784L210.058 366.869C206.785 367.86 203.539 368.898 200.32 369.979L200.957 371.875ZM240.194 361.335C243.508 360.668 246.848 360.052 250.212 359.49L249.883 357.517C246.496 358.083 243.135 358.703 239.799 359.374L240.194 361.335ZM280.477 355.993C283.829 355.778 287.203 355.619 290.6 355.517L290.54 353.518C287.12 353.62 283.723 353.781 280.349 353.997L280.477 355.993ZM321.063 356.165C324.428 356.408 327.814 356.709 331.22 357.07L331.431 355.081C328.002 354.717 324.595 354.414 321.207 354.17L321.063 356.165ZM361.291 361.751C364.588 362.427 367.903 363.16 371.236 363.952L371.698 362.006C368.345 361.21 365.01 360.472 361.693 359.791L361.291 361.751ZM400.548 372.309C403.729 373.366 406.925 374.478 410.138 375.644L410.82 373.764C407.591 372.591 404.377 371.474 401.179 370.411L400.548 372.309ZM438.384 387.171C439.945 387.878 441.509 388.598 443.076 389.331L443.924 387.519C442.349 386.783 440.777 386.059 439.209 385.349L438.384 387.171ZM443.076 389.331C444.621 390.053 446.14 390.78 447.635 391.511L448.514 389.714C447.008 388.978 445.478 388.246 443.924 387.519L443.076 389.331ZM473.058 405.826C475.905 407.683 478.621 409.557 481.21 411.448L482.389 409.833C479.771 407.921 477.026 406.026 474.15 404.151L473.058 405.826ZM502.992 430.806C505.242 433.299 507.306 435.804 509.191 438.316L510.791 437.116C508.868 434.554 506.766 432.002 504.476 429.466L502.992 430.806ZM522.473 463.98C523.417 467.139 524.115 470.284 524.579 473.406L526.557 473.111C526.079 469.895 525.361 466.657 524.39 463.407L522.473 463.98ZM522.403 502.073C521.467 505.148 520.313 508.165 518.957 511.111L520.774 511.947C522.166 508.921 523.353 505.82 524.316 502.656L522.403 502.073ZM502.307 534.814C500.051 537.099 497.658 539.29 495.141 541.378L496.418 542.917C498.985 540.788 501.427 538.552 503.73 536.219L502.307 534.814ZM470.402 556.699C467.461 558.019 464.444 559.221 461.363 560.297L462.022 562.185C465.157 561.09 468.227 559.867 471.221 558.524L470.402 556.699ZM432.875 566.31C429.66 566.565 426.417 566.683 423.155 566.656L423.139 568.656C426.459 568.683 429.761 568.564 433.033 568.304L432.875 566.31ZM394.352 562.544C391.262 561.667 388.181 560.644 385.117 559.469L384.401 561.336C387.521 562.533 390.659 563.575 393.806 564.468L394.352 562.544ZM359.559 545.602C358.237 544.649 356.922 543.661 355.617 542.638L354.383 544.212C355.71 545.252 357.046 546.256 358.39 547.224L359.559 545.602ZM355.617 542.638C354.327 541.627 353.069 540.517 351.846 539.314L350.443 540.74C351.717 541.993 353.031 543.152 354.383 544.212L355.617 542.638ZM335.881 513.453C334.688 510.348 333.609 507.089 332.653 503.696L330.728 504.238C331.7 507.688 332.798 511.005 334.013 514.17L335.881 513.453ZM327.748 473.318C327.56 469.945 327.478 466.514 327.506 463.034L325.506 463.018C325.478 466.54 325.561 470.014 325.751 473.428L327.748 473.318ZM330.549 432.375C331.184 429.039 331.924 425.69 332.77 422.337L330.831 421.847C329.975 425.239 329.227 428.626 328.584 432L330.549 432.375ZM342.947 393.244C344.355 390.144 345.868 387.062 347.487 384.004L345.72 383.068C344.081 386.162 342.551 389.281 341.126 392.417L342.947 393.244ZM364.333 358.226C366.443 355.567 368.655 352.946 370.969 350.37L369.481 349.033C367.139 351.64 364.902 354.292 362.767 356.983L364.333 358.226ZM393.532 329.394C396.207 327.315 398.974 325.286 401.836 323.311L400.7 321.665C397.807 323.661 395.01 325.713 392.305 327.815L393.532 329.394ZM428.543 307.897C431.61 306.43 434.759 305.016 437.99 303.659L437.216 301.815C433.955 303.185 430.777 304.612 427.68 306.093L428.543 307.897ZM467.137 293.644C470.397 292.749 473.724 291.905 477.12 291.114L476.666 289.166C473.246 289.963 469.893 290.814 466.607 291.715L467.137 293.644ZM507.608 285.706C510.945 285.286 514.337 284.911 517.785 284.583L517.596 282.592C514.128 282.922 510.716 283.299 507.358 283.721L507.608 285.706ZM548.717 282.958C550.466 282.936 552.227 282.925 554 282.925V280.925C552.218 280.925 550.449 280.936 548.692 280.958L548.717 282.958ZM554 282.925C555.656 282.925 557.318 282.958 558.987 283.024L559.066 281.026C557.371 280.959 555.683 280.925 554 280.925V282.925ZM588.733 287.201C591.952 287.936 595.199 288.756 598.475 289.654L599.003 287.725C595.702 286.82 592.428 285.993 589.178 285.251L588.733 287.201ZM627.144 299.019C630.252 300.169 633.387 301.364 636.549 302.599L637.277 300.736C634.104 299.497 630.958 298.298 627.838 297.143L627.144 299.019ZM664.508 314.078C667.574 315.38 670.667 316.701 673.787 318.038L674.574 316.2C671.453 314.862 668.359 313.54 665.289 312.237L664.508 314.078ZM701.624 329.938C704.698 331.237 707.798 332.537 710.925 333.836L711.692 331.989C708.569 330.692 705.473 329.393 702.402 328.096L701.624 329.938ZM739.065 345.099C742.185 346.293 745.331 347.475 748.504 348.643L749.195 346.767C746.031 345.601 742.892 344.422 739.779 343.231L739.065 345.099ZM777.18 358.496C780.367 359.507 783.58 360.497 786.82 361.463L787.391 359.547C784.163 358.584 780.961 357.597 777.785 356.59L777.18 358.496ZM816.113 369.298C819.369 370.065 822.652 370.804 825.961 371.51L826.379 369.554C823.084 368.851 819.815 368.115 816.572 367.351L816.113 369.298ZM855.806 376.857C859.123 377.336 862.465 377.779 865.834 378.184L866.073 376.199C862.72 375.795 859.393 375.354 856.091 374.878L855.806 376.857ZM896.053 380.731C899.399 380.891 902.77 381.012 906.165 381.092L906.212 379.093C902.833 379.013 899.479 378.893 896.149 378.733L896.053 380.731ZM936.469 380.704C938.161 380.621 939.858 380.527 941.561 380.423L941.439 378.427C939.744 378.531 938.055 378.624 936.371 378.707L936.469 380.704ZM941.561 380.423C943.207 380.322 944.86 380.188 946.519 380.021L946.319 378.031C944.685 378.196 943.058 378.328 941.439 378.427L941.561 380.423ZM976.201 373.914C979.393 372.949 982.605 371.886 985.835 370.73L985.161 368.847C981.96 369.992 978.781 371.044 975.622 372L976.201 373.914ZM1013.59 358.812C1016.6 357.319 1019.62 355.76 1022.66 354.136L1021.71 352.373C1018.7 353.987 1015.69 355.537 1012.7 357.02L1013.59 358.812ZM1048.77 338.833C1051.55 337.07 1054.34 335.262 1057.13 333.411L1056.03 331.743C1053.24 333.587 1050.47 335.388 1047.7 337.144L1048.77 338.833ZM1081.91 316.079C1084.63 314.086 1087.34 312.059 1090.07 310.001L1088.86 308.406C1086.15 310.458 1083.44 312.479 1080.73 314.467L1081.91 316.079ZM1113.86 291.347C1116.43 289.257 1119.01 287.144 1121.6 285.011L1120.32 283.469C1117.74 285.599 1115.17 287.707 1112.6 289.793L1113.86 291.347ZM1144.65 265.478C1147.18 263.288 1149.7 261.082 1152.23 258.863L1150.91 257.36C1148.39 259.577 1145.86 261.78 1143.34 263.966L1144.65 265.478ZM1174.76 238.732C1177.25 236.475 1179.74 234.208 1182.22 231.933L1180.87 230.458C1178.39 232.731 1175.9 234.996 1173.42 237.251L1174.76 238.732ZM1204.38 211.427C1206.83 209.136 1209.28 206.841 1211.72 204.543L1210.36 203.085C1207.91 205.382 1205.46 207.676 1203.01 209.966L1204.38 211.427ZM1233.68 183.811C1236.12 181.496 1238.55 179.184 1240.98 176.874L1239.6 175.424C1237.17 177.734 1234.74 180.046 1232.3 182.36L1233.68 183.811ZM1262.87 156.067C1265.3 153.758 1267.73 151.455 1270.15 149.161L1268.77 147.71C1266.35 150.004 1263.93 152.307 1261.49 154.617L1262.87 156.067ZM1292.11 128.453C1294.57 126.15 1297.02 123.861 1299.46 121.588L1298.1 120.124C1295.65 122.399 1293.2 124.689 1290.74 126.994L1292.11 128.453ZM1321.68 101.153C1324.2 98.8743 1326.7 96.6184 1329.19 94.3872L1327.85 92.8974C1325.36 95.1315 1322.85 97.39 1320.34 99.6711L1321.68 101.153ZM1351.88 74.5127C1354.41 72.3451 1356.94 70.2111 1359.45 68.1128L1358.16 66.5787C1355.65 68.6816 1353.12 70.82 1350.58 72.9917L1351.88 74.5127ZM1383.03 49.1473C1385.73 47.0678 1388.42 45.0424 1391.08 43.074L1389.89 41.466C1387.22 43.4421 1384.52 45.4749 1381.81 47.5614L1383.03 49.1473ZM1415.73 26.1412C1418.69 24.279 1421.62 22.5106 1424.51 20.841L1423.51 19.109C1420.6 20.7919 1417.65 22.5731 1414.66 24.4474L1415.73 26.1412ZM1451.39 7.88747C1454.64 6.67761 1457.84 5.64479 1460.96 4.79783L1460.43 2.86766C1457.25 3.73193 1454 4.78379 1450.69 6.01257L1451.39 7.88747ZM1490.28 2.95484C1493.51 3.59649 1496.62 4.56724 1499.61 5.88451L1500.41 4.05428C1497.29 2.67623 1494.03 1.66238 1490.67 0.993203L1490.28 2.95484ZM1521.5 25.0442C1523.26 27.6273 1524.95 30.447 1526.56 33.5122L1528.33 32.5823C1526.69 29.4545 1524.96 26.5682 1523.15 23.9163L1521.5 25.0442ZM1537.18 61.4831C1537.64 63.1702 1538.09 64.8972 1538.53 66.6646L1540.47 66.185C1540.03 64.4017 1539.58 62.6582 1539.11 60.9542L1537.18 61.4831ZM1538.53 66.6646C1538.95 68.385 1539.38 70.0962 1539.82 71.7981L1541.76 71.3031C1541.32 69.6063 1540.89 67.9003 1540.47 66.185L1538.53 66.6646ZM1548.31 101.967C1549.35 105.349 1550.42 108.691 1551.5 111.993L1553.4 111.37C1552.32 108.079 1551.26 104.748 1550.22 101.377L1548.31 101.967ZM1562.08 141.535C1563.36 144.803 1564.65 148.026 1565.96 151.205L1567.81 150.442C1566.5 147.275 1565.22 144.064 1563.95 140.809L1562.08 141.535ZM1578.81 179.863C1580.36 183.047 1581.92 186.18 1583.51 189.262L1585.28 188.349C1583.71 185.28 1582.15 182.16 1580.61 178.989L1578.81 179.863ZM1598.78 216.686C1600.61 219.713 1602.45 222.682 1604.31 225.593L1605.99 224.518C1604.15 221.621 1602.31 218.665 1600.49 215.652L1598.78 216.686ZM1622.16 251.406C1624.29 254.24 1626.43 257.007 1628.57 259.708L1630.14 258.463C1628.01 255.777 1625.88 253.024 1623.76 250.204L1622.16 251.406ZM1649.14 283.445C1651.58 286.02 1654.02 288.517 1656.46 290.936L1657.87 289.517C1655.45 287.112 1653.02 284.63 1650.6 282.069L1649.14 283.445ZM1679.82 311.962C1682.59 314.215 1685.35 316.369 1688.08 318.427L1689.28 316.83C1686.57 314.786 1683.83 312.647 1681.08 310.41L1679.82 311.962ZM1714.27 335.809C1717.41 337.615 1720.49 339.286 1723.49 340.826L1724.4 339.046C1721.43 337.521 1718.38 335.865 1715.27 334.076L1714.27 335.809ZM1752.67 352.599C1754.43 353.094 1756.14 353.527 1757.78 353.9L1758.22 351.95C1756.61 351.585 1754.94 351.16 1753.21 350.673L1752.67 352.599Z" fill="#00DDC2"/>
</svg>
