<svg width="216" height="80" viewBox="0 0 216 80" fill="none" xmlns="http://www.w3.org/2000/svg">
<g clip-path="url(#clip0_98_2)">
<path d="M70.8797 49.0664C68.5703 49.0664 66.7573 48.4188 65.4191 47.1451C64.081 45.8715 63.4119 44.0151 63.4119 41.6406V37.1721C63.4119 34.776 64.081 32.9412 65.4191 31.6675C66.7573 30.3939 68.5919 29.7463 70.8797 29.7463C73.1675 29.7463 74.9374 30.3723 76.1676 31.6244C77.4194 32.8764 78.0454 34.5817 78.0454 36.762V36.9131H74.592V36.6541C74.592 35.5531 74.2899 34.6465 73.6855 33.9557C73.0812 33.2434 72.1315 32.898 70.8797 32.898C69.6494 32.898 68.6566 33.2865 67.966 34.0421C67.2753 34.7976 66.9084 35.8338 66.9084 37.1505V41.7269C66.9084 43.0221 67.2537 44.0583 67.966 44.8138C68.6782 45.5693 69.6494 45.9795 70.8797 45.9795C72.1315 45.9795 73.0596 45.6125 73.6855 44.9001C74.2899 44.1878 74.592 43.2811 74.592 42.2018V41.7269H78.0454V42.0939C78.0454 44.2741 77.4194 45.9795 76.1676 47.2315C74.9374 48.4403 73.1675 49.0664 70.8797 49.0664Z" fill="#272D2D"/>
<path d="M80.2253 48.6994V35.5316H83.5276V37.0211H84.0024C84.1967 36.4814 84.5204 36.0928 84.9737 35.8554C85.4269 35.6179 85.9449 35.4884 86.5493 35.4884H88.1464V38.4674H86.5061C85.6643 38.4674 84.9521 38.6832 84.4125 39.1365C83.8729 39.5899 83.5923 40.2806 83.5923 41.2304V48.721H80.2253V48.6994Z" fill="#272D2D"/>
<path d="M95.4846 49.0663C94.168 49.0663 93.0241 48.7857 92.0097 48.2244C91.0168 47.6632 90.2398 46.8861 89.6787 45.8715C89.1175 44.8569 88.8369 43.6481 88.8369 42.2665V41.9427C88.8369 40.5612 89.1175 39.3523 89.6571 38.3378C90.1967 37.3232 90.9737 36.5245 91.9665 35.9848C92.9593 35.4236 94.1032 35.1429 95.4198 35.1429C96.7148 35.1429 97.8372 35.4236 98.7868 36.0064C99.7365 36.5892 100.492 37.388 101.01 38.4025C101.549 39.4171 101.808 40.6044 101.808 41.9427V43.0868H92.2255C92.2687 43.9935 92.5924 44.7274 93.2399 45.2887C93.8874 45.8499 94.6644 46.1305 95.5709 46.1305C96.499 46.1305 97.1897 45.9362 97.6429 45.5261C98.0746 45.116 98.4199 44.6626 98.6573 44.1662L101.398 45.5909C101.161 46.0442 100.794 46.5623 100.319 47.1019C99.8444 47.6416 99.2185 48.0949 98.4415 48.4835C97.6645 48.872 96.6717 49.0663 95.4846 49.0663ZM92.2687 40.6044H98.4199C98.3552 39.8488 98.053 39.2228 97.5134 38.7695C96.9738 38.3162 96.2616 38.0787 95.3982 38.0787C94.4917 38.0787 93.7795 38.3162 93.2399 38.7695C92.7219 39.2228 92.3766 39.8488 92.2687 40.6044Z" fill="#272D2D"/>
<path d="M108.089 49.0664C107.161 49.0664 106.319 48.8937 105.564 48.5699C104.83 48.2461 104.226 47.7712 103.794 47.1452C103.363 46.5192 103.147 45.7421 103.147 44.857C103.147 43.9504 103.363 43.1949 103.794 42.5904C104.226 41.986 104.83 41.5111 105.607 41.2089C106.384 40.9067 107.248 40.734 108.24 40.734H111.845V40C111.845 39.374 111.651 38.8775 111.262 38.4674C110.874 38.0788 110.248 37.863 109.406 37.863C108.564 37.863 107.96 38.0572 107.55 38.4242C107.14 38.8128 106.881 39.2877 106.751 39.8921L103.665 38.8559C103.881 38.1868 104.226 37.5607 104.679 36.9995C105.154 36.4382 105.78 35.9849 106.557 35.6395C107.334 35.2942 108.305 35.1215 109.427 35.1215C111.154 35.1215 112.535 35.5532 113.55 36.4167C114.564 37.2801 115.061 38.5321 115.061 40.1943V45.1161C115.061 45.6557 115.298 45.9148 115.795 45.9148H116.852V48.6779H114.629C113.982 48.6779 113.442 48.5267 113.01 48.2029C112.579 47.8792 112.363 47.469 112.363 46.9293V46.9078H111.866C111.802 47.1236 111.629 47.4042 111.392 47.7496C111.154 48.095 110.744 48.3972 110.226 48.6563C109.73 48.9369 109.017 49.0664 108.089 49.0664ZM108.672 46.3681C109.6 46.3681 110.377 46.109 110.96 45.591C111.543 45.0729 111.845 44.3821 111.845 43.4971V43.238H108.478C107.852 43.238 107.377 43.3675 107.01 43.6266C106.665 43.8856 106.471 44.2742 106.471 44.7491C106.471 45.224 106.665 45.6126 107.032 45.9148C107.42 46.217 107.96 46.3681 108.672 46.3681Z" fill="#272D2D"/>
<path d="M122.637 48.6994C121.773 48.6994 121.061 48.4187 120.521 47.8791C119.982 47.3394 119.701 46.6271 119.701 45.7204V38.2946H116.399V35.5315H119.701V31.4517H123.047V35.5315H126.651V38.2946H123.047V45.1376C123.047 45.6772 123.284 45.9363 123.78 45.9363H126.327V48.6994H122.637Z" fill="#272D2D"/>
<path d="M130.579 33.9773C129.975 33.9773 129.478 33.783 129.047 33.3945C128.637 33.0059 128.421 32.4878 128.421 31.8618C128.421 31.2142 128.637 30.7177 129.047 30.3292C129.457 29.9406 129.975 29.7463 130.579 29.7463C131.205 29.7463 131.702 29.9406 132.112 30.3292C132.522 30.7177 132.716 31.2358 132.716 31.8618C132.716 32.5094 132.522 33.0059 132.112 33.3945C131.702 33.783 131.205 33.9773 130.579 33.9773ZM128.896 48.6994V35.5316H132.241V48.6994H128.896Z" fill="#272D2D"/>
<path d="M137.939 48.6993L133.752 35.5315H137.313L140.356 46.26H140.831L143.875 35.5315H147.436L143.249 48.6993H137.939Z" fill="#272D2D"/>
<path d="M154.558 49.0663C153.242 49.0663 152.098 48.7857 151.083 48.2244C150.091 47.6632 149.314 46.8861 148.752 45.8715C148.191 44.8569 147.911 43.6481 147.911 42.2665V41.9427C147.911 40.5612 148.191 39.3523 148.731 38.3378C149.27 37.3232 150.047 36.5245 151.04 35.9848C152.033 35.4236 153.177 35.1429 154.494 35.1429C155.789 35.1429 156.911 35.4236 157.861 36.0064C158.81 36.5892 159.566 37.388 160.084 38.4025C160.623 39.4171 160.882 40.6044 160.882 41.9427V43.0868H151.299C151.342 43.9935 151.666 44.7274 152.314 45.2887C152.961 45.8499 153.738 46.1305 154.645 46.1305C155.573 46.1305 156.263 45.9362 156.717 45.5261C157.17 45.116 157.494 44.6626 157.731 44.1662L160.472 45.5909C160.235 46.0442 159.868 46.5623 159.393 47.1019C158.918 47.6416 158.292 48.0949 157.515 48.4835C156.738 48.872 155.745 49.0663 154.558 49.0663ZM151.342 40.6044H157.494C157.429 39.8488 157.127 39.2228 156.587 38.7695C156.048 38.3162 155.335 38.0787 154.472 38.0787C153.565 38.0787 152.853 38.3162 152.314 38.7695C151.796 39.2228 151.472 39.8488 151.342 40.6044Z" fill="#272D2D"/>
<path d="M168.911 48.6994V30.1133H180.588V33.3081H172.408V37.7765H179.94V40.9714H172.408V48.6994H168.911Z" fill="#272D2D"/>
<path d="M187.43 48.9152C186.394 48.9152 185.509 48.6777 184.732 48.2028C183.955 47.7279 183.372 47.0803 182.94 46.26C182.509 45.4182 182.293 44.4684 182.293 43.389V35.5315H185.638V43.13C185.638 44.123 185.876 44.8569 186.372 45.3534C186.869 45.8499 187.559 46.0873 188.466 46.0873C189.502 46.0873 190.279 45.742 190.862 45.0728C191.423 44.382 191.703 43.4322 191.703 42.2233V35.5315H195.049V48.6993H191.746V46.9724H191.272C191.056 47.4257 190.667 47.8575 190.085 48.2676C189.502 48.6993 188.617 48.9152 187.43 48.9152Z" fill="#272D2D"/>
<path d="M203.963 49.0663C202.646 49.0663 201.502 48.7857 200.488 48.2244C199.495 47.6632 198.718 46.8861 198.157 45.8715C197.596 44.8569 197.315 43.6481 197.315 42.2665V41.9427C197.315 40.5612 197.596 39.3523 198.135 38.3378C198.675 37.3232 199.452 36.5245 200.445 35.9848C201.437 35.4236 202.581 35.1429 203.898 35.1429C205.193 35.1429 206.315 35.4236 207.265 36.0064C208.215 36.5892 208.97 37.388 209.488 38.4025C210.028 39.4171 210.287 40.6044 210.287 41.9427V43.0868H200.725C200.768 43.9935 201.092 44.7274 201.74 45.2887C202.387 45.8499 203.164 46.1305 204.071 46.1305C204.999 46.1305 205.689 45.9362 206.143 45.5261C206.574 45.116 206.92 44.6626 207.157 44.1662L209.898 45.5909C209.661 46.0442 209.294 46.5623 208.819 47.1019C208.344 47.6416 207.718 48.0949 206.941 48.4835C206.164 48.872 205.171 49.0663 203.963 49.0663ZM200.747 40.6044H206.898C206.833 39.8488 206.531 39.2228 205.991 38.7695C205.452 38.3162 204.74 38.0787 203.876 38.0787C202.97 38.0787 202.258 38.3162 201.718 38.7695C201.2 39.2228 200.876 39.8488 200.747 40.6044Z" fill="#272D2D"/>
<path d="M212.488 48.6994V30.1133H215.833V48.6994H212.488Z" fill="#272D2D"/>
<path d="M63.304 67.0265V56.924H64.232V67.0265H63.304Z" fill="#272D2D"/>
<path d="M68.1602 67.0265V56.924H69.9947L74.1172 66.4652H74.2898V56.924H75.2179V67.0265H73.3833L69.2609 57.4636H69.0882V67.0265H68.1602Z" fill="#272D2D"/>
<path d="M81.6714 67.0265V57.7658H78.3044V56.924H85.9881V57.7658H82.6211V67.0265H81.6714Z" fill="#272D2D"/>
<path d="M89.0745 67.0265V56.924H95.1825V57.7658H90.0025V61.5435H94.7725V62.3854H90.0025V66.1846H95.2473V67.0265H89.0745Z" fill="#272D2D"/>
<path d="M98.679 67.0265V56.924H102.629C103.255 56.924 103.794 57.0319 104.291 57.2477C104.765 57.4636 105.132 57.7658 105.413 58.1544C105.694 58.5429 105.823 59.0394 105.823 59.6007V59.7518C105.823 60.4426 105.65 60.9606 105.327 61.3708C105.003 61.7593 104.614 62.0184 104.183 62.1479V62.3206C104.528 62.3206 104.809 62.4285 105.024 62.6444C105.262 62.8387 105.37 63.1625 105.37 63.6158V67.0481H104.463V63.7237C104.463 63.4215 104.377 63.1841 104.204 63.0114C104.032 62.8387 103.794 62.7739 103.449 62.7739H99.607V67.0697H98.679V67.0265ZM99.607 61.9105H102.542C103.298 61.9105 103.881 61.7378 104.291 61.3924C104.701 61.047 104.895 60.5289 104.895 59.8813V59.795C104.895 59.1474 104.701 58.6293 104.291 58.2839C103.902 57.9385 103.298 57.7658 102.542 57.7658H99.607V61.9105Z" fill="#272D2D"/>
<path d="M108.392 67.0265L111.694 56.924H113.334L116.636 67.0265H115.687L114.823 64.3497H110.226L109.363 67.0265H108.392ZM110.485 63.5079H114.543L112.6 57.4852H112.428L110.485 63.5079Z" fill="#272D2D"/>
<path d="M123.155 67.2423C121.967 67.2423 121.018 66.8969 120.327 66.2062C119.615 65.5154 119.27 64.4792 119.27 63.1409V60.8527C119.27 59.5143 119.615 58.4782 120.327 57.7874C121.039 57.0966 121.989 56.7512 123.155 56.7512C124.32 56.7512 125.227 57.075 125.852 57.7442C126.478 58.4134 126.781 59.2984 126.781 60.4425V60.5073H125.852V60.3994C125.852 59.5791 125.637 58.8883 125.205 58.3702C124.773 57.8521 124.083 57.5931 123.155 57.5931C122.226 57.5931 121.493 57.8737 120.975 58.435C120.457 58.9962 120.198 59.7949 120.198 60.8311V63.1624C120.198 64.1986 120.457 64.9973 120.975 65.5586C121.493 66.1198 122.226 66.4004 123.155 66.4004C124.083 66.4004 124.752 66.1414 125.205 65.6233C125.637 65.1052 125.852 64.4145 125.852 63.5942V63.3783H126.781V63.5726C126.781 64.7167 126.478 65.6017 125.852 66.2709C125.227 66.8969 124.32 67.2423 123.155 67.2423Z" fill="#272D2D"/>
<path d="M132.543 67.0265V57.7658H129.176V56.924H136.838V57.7658H133.471V67.0265H132.543Z" fill="#272D2D"/>
<path d="M139.925 67.0265V56.924H140.853V67.0265H139.925Z" fill="#272D2D"/>
<path d="M147.177 67.0265L143.939 56.924H144.91L147.932 66.4868H148.105L151.126 56.924H152.098L148.86 67.0265H147.177Z" fill="#272D2D"/>
<path d="M155.163 67.0265V56.924H161.271V57.7658H156.091V61.5435H160.861V62.3854H156.091V66.1846H161.335V67.0265H155.163Z" fill="#272D2D"/>
<path d="M49.5553 47.102C46.8358 54.9164 40.6198 60.8527 33.2383 63.1193C35.6341 60.7663 37.5118 58.8667 38.4183 56.3411C39.2817 53.945 39.1953 51.2035 38.1593 48.8721C38.0946 48.7426 38.0298 48.6131 37.9867 48.4835C37.8787 48.2677 37.7492 48.0518 37.6197 47.8359C35.7636 44.8354 32.2239 43.2164 29.5907 40.7771C25.2093 36.6972 23.5906 31.4301 25.5978 25.796C17.5688 31.3654 23.8496 41.5542 25.2525 46.6271C26.7202 51.9806 19.5329 55.1106 16.2738 51.4193C15.0436 50.0378 14.3745 45.5478 18.2163 43.5834C16.2522 43.6913 13.6838 45.3535 12.7557 46.843C11.5902 48.6994 11.1802 50.5559 11.2233 52.326C11.2665 53.8802 11.6766 55.3481 12.3025 56.6865C13.7054 59.7302 16.1227 62.1047 17.5904 63.0977C13.5327 61.8241 9.66933 59.3632 6.6045 55.9741C3.32383 52.3475 0.97125 47.6632 0.259 42.1802C0.0863333 41.0362 0 39.8705 0 38.64C0 28.6886 6.04333 21.3708 10.8348 18.0464C15.5832 14.7652 23.9791 11.6999 23.6122 4.64112C23.5474 3.25958 23.1373 1.72693 22.2956 0C25.3388 0.712358 27.9504 3.00054 29.8713 5.84997C31.5548 8.35402 32.7419 11.3114 33.2167 14.0313C33.8427 17.5283 33.9074 22.4933 36.7564 24.6087C38.9795 26.2277 42.2386 24.6735 41.4616 21.6514C41.0083 19.8165 38.6989 17.3125 37.2528 16.2979C41.2673 18.435 44.3537 21.3492 46.5552 24.6735C47.4833 26.055 48.2387 27.4798 48.8647 28.9692C51.3683 34.884 51.5194 41.4679 49.5553 47.102Z" fill="url(#paint0_linear_98_2)"/>
<path d="M35.4829 72.0345H15.4105C14.0507 72.0345 12.95 70.9336 12.95 69.5737C12.95 68.2137 14.0507 67.1128 15.4105 67.1128H35.4829C36.8427 67.1128 37.9435 68.2137 37.9435 69.5737C37.9435 70.9336 36.8427 72.0345 35.4829 72.0345Z" fill="url(#paint1_linear_98_2)"/>
<path d="M34.296 74.9919C32.5046 77.9925 29.2023 80 25.4468 80C21.6913 80 18.4107 77.9925 16.5977 74.9919H34.296Z" fill="url(#paint2_linear_98_2)"/>
<path d="M47.0732 29.6816C47.0732 37.388 43.5983 44.2742 38.1377 48.8721C38.073 48.7426 38.0082 48.6131 37.9651 48.4835C37.8572 48.2677 37.7277 48.0518 37.5982 47.8359C35.742 44.8354 32.2023 43.2164 29.5692 40.7771C28.0583 39.374 26.8928 37.8413 26.0727 36.2223C24.4971 33.0707 24.2597 29.5305 25.5762 25.8176C21.0437 28.9908 21.0869 33.6319 22.2308 37.9924C23.0942 41.3168 24.6266 44.4684 25.2309 46.6487C26.6986 52.0022 19.5113 55.1322 16.2523 51.4409C15.022 50.0594 14.3529 45.5693 18.1947 43.605C16.2307 43.7129 13.6622 45.3751 12.7342 46.8645C11.5687 48.721 11.1586 50.5774 11.2017 52.3475C6.6045 50.1457 2.76267 46.5839 0.237417 42.1802C0.0863333 41.0362 0 39.8705 0 38.64C0 36.7188 0.215833 34.9056 0.625917 33.2002C2.28783 26.0119 6.97142 20.7232 10.8564 18.0464C15.6047 14.7652 24.0007 11.6999 23.6337 4.64112C23.569 3.25958 23.1589 1.72693 22.3172 0C25.3604 0.712358 27.972 3.00054 29.8929 5.84997C31.5764 8.35402 32.7635 11.3114 33.2383 14.0313C33.7779 17.0966 33.9074 21.306 35.8499 23.7021C36.1305 24.0475 36.4327 24.3281 36.778 24.5872C39.0011 26.2062 42.2602 24.6519 41.4832 21.6298C41.0299 19.7949 38.7205 17.2909 37.2744 16.2763C41.2889 18.4134 44.3753 21.3276 46.5768 24.6519C46.9006 26.2925 47.0732 27.9763 47.0732 29.6816Z" fill="url(#paint3_linear_98_2)"/>
<path d="M11.1802 20.5289C11.1802 20.5289 2.33105 27.6525 2.33105 38.5753C2.33105 38.5753 6.88514 34.4307 12.0436 36.3087C12.0436 36.3087 10.6406 31.02 15.3242 27.2208C15.3242 27.2208 10.8565 23.918 11.1802 20.5289Z" fill="url(#paint4_linear_98_2)"/>
<path d="M45.4113 27.2207C45.4113 27.2207 52.9223 40.6908 43.3178 50.966C43.3178 50.966 43.6415 43.5834 36.9507 41.1657C36.9507 41.1657 41.4184 36.3087 38.7421 31.5596C38.7637 31.5596 44.0948 32.7037 45.4113 27.2207Z" fill="url(#paint5_linear_98_2)"/>
</g>
<defs>
<linearGradient id="paint0_linear_98_2" x1="25.4506" y1="1.1809" x2="25.4506" y2="58.7619" gradientUnits="userSpaceOnUse">
<stop stop-color="#0071BC"/>
<stop offset="1" stop-color="#00DDC2"/>
</linearGradient>
<linearGradient id="paint1_linear_98_2" x1="12.9653" y1="69.583" x2="37.9383" y2="69.583" gradientUnits="userSpaceOnUse">
<stop stop-color="#00DDC2"/>
<stop offset="1" stop-color="#0071BC"/>
</linearGradient>
<linearGradient id="paint2_linear_98_2" x1="16.6067" y1="77.4897" x2="34.2971" y2="77.4897" gradientUnits="userSpaceOnUse">
<stop stop-color="#00DDC2"/>
<stop offset="1" stop-color="#0071BC"/>
</linearGradient>
<linearGradient id="paint3_linear_98_2" x1="-3.76325" y1="5.5739" x2="30.6482" y2="39.9802" gradientUnits="userSpaceOnUse">
<stop stop-color="white" stop-opacity="0.2"/>
<stop offset="1" stop-color="#00DDC2"/>
</linearGradient>
<linearGradient id="paint4_linear_98_2" x1="12.1797" y1="34.4517" x2="5.69602" y2="28.5923" gradientUnits="userSpaceOnUse">
<stop stop-color="white" stop-opacity="0.2"/>
<stop offset="1" stop-color="white" stop-opacity="0.5"/>
</linearGradient>
<linearGradient id="paint5_linear_98_2" x1="48.4909" y1="42.807" x2="39.1789" y2="34.3916" gradientUnits="userSpaceOnUse">
<stop stop-color="white" stop-opacity="0.2"/>
<stop offset="1" stop-color="white" stop-opacity="0.5"/>
</linearGradient>
<clipPath id="clip0_98_2">
<rect width="215.833" height="80" fill="white"/>
</clipPath>
</defs>
</svg>
